<?xml version="1.0" encoding="UTF-8" standalone="no"?>
<!-- Created with Inkscape (http://www.inkscape.org/) -->

<svg
   width="34.924999mm"
   height="34.924999mm"
   viewBox="0 0 34.924999 34.924999"
   version="1.1"
   id="svg1"
   inkscape:version="1.4.2 (ebf0e940, 2025-05-08)"
   sodipodi:docname="qr.svg"
   xmlns:inkscape="http://www.inkscape.org/namespaces/inkscape"
   xmlns:sodipodi="http://sodipodi.sourceforge.net/DTD/sodipodi-0.dtd"
   xmlns="http://www.w3.org/2000/svg"
   xmlns:svg="http://www.w3.org/2000/svg">
  <sodipodi:namedview
     id="namedview1"
     pagecolor="#ffffff"
     bordercolor="#000000"
     borderopacity="0.25"
     inkscape:showpageshadow="2"
     inkscape:pageopacity="0.0"
     inkscape:pagecheckerboard="0"
     inkscape:deskcolor="#d1d1d1"
     inkscape:document-units="mm"
     inkscape:zoom="0.63559753"
     inkscape:cx="12.586581"
     inkscape:cy="70.012858"
     inkscape:window-width="1840"
     inkscape:window-height="1068"
     inkscape:window-x="578"
     inkscape:window-y="64"
     inkscape:window-maximized="0"
     inkscape:current-layer="layer1" />
  <defs
     id="defs1" />
  <g
     inkscape:label="Layer 1"
     inkscape:groupmode="layer"
     id="layer1"
     transform="translate(-105.08299,-148.49998)">
    <path
       id="rect1"
       style="fill:#000000;stroke:none;stroke-width:0.264583"
       d="m 105.08299,148.49998 v 34.925 h 34.925 v -34.925 z m 11.7476,4.23333 h 0.84646 c 0.0585,0 0.10594,0.0475 0.10594,0.10594 v 0.84646 c 0,0.0584 0.0475,0.10594 0.10594,0.10594 h 0.84646 c 0.0585,0 0.10593,0.0475 0.10593,0.10593 v 0.9524 h 1.05834 v -0.9524 c 0,-0.0584 0.0475,-0.10593 0.10593,-0.10593 h 0.84646 c 0.0584,0 0.10594,0.0475 0.10594,0.10593 v 0.9524 h 0.9524 c 0.0584,0 0.10593,-0.0475 0.10593,-0.10594 v -0.84646 c 0,-0.0584 0.0475,-0.10593 0.10594,-0.10593 h 1.90479 c 0.0584,0 0.10594,-0.0475 0.10594,-0.10594 v -0.84646 c 0,-0.0584 0.0475,-0.10594 0.10594,-0.10594 h 1.90479 c 0.0584,0 0.10594,0.0475 0.10594,0.10594 v 0.84646 c 0,0.0584 0.0475,0.10594 0.10593,0.10594 h 0.84646 c 0.0584,0 0.10594,-0.0475 0.10594,-0.10594 v -0.84646 c 0,-0.0584 0.0475,-0.10594 0.10594,-0.10594 h 0.84646 c 0.0584,0 0.10593,0.0475 0.10593,0.10594 v 7.19646 c 0,0.0584 0.0475,0.10594 0.10594,0.10594 h 7.19646 c 0.0585,0 0.10594,0.0475 0.10594,0.10593 v 0.84646 c 0,0.0584 -0.0475,0.10594 -0.10594,0.10594 h -0.84646 c -0.0585,0 -0.10594,0.0475 -0.10594,0.10594 v 0.95239 h 0.9524 c 0.0585,0 0.10594,0.0475 0.10594,0.10594 v 2.96313 c 0,0.0584 -0.0475,0.10593 -0.10594,0.10593 h -1.90479 c -0.0585,0 -0.10594,-0.0475 -0.10594,-0.10593 v -0.84646 c 0,-0.0584 -0.0475,-0.10594 -0.10594,-0.10594 h -2.01073 v 1.05833 h 0.9524 c 0.0585,0 0.10594,0.0475 0.10594,0.10594 v 0.84646 c 0,0.0585 0.0475,0.10594 0.10593,0.10594 h 1.9048 c 0.0585,0 0.10593,0.0475 0.10593,0.10593 v 0.9524 h 0.9524 c 0.0585,0 0.10594,0.0475 0.10594,0.10594 v 0.84646 c 0,0.0585 -0.0475,0.10593 -0.10594,0.10593 h -0.9524 v 0.9524 c 0,0.0584 -0.0475,0.10594 -0.10593,0.10594 h -2.96313 c -0.0585,0 -0.10594,-0.0475 -0.10594,-0.10594 v -4.1274 h -0.95239 c -0.0584,0 -0.10594,0.0475 -0.10594,0.10594 v 0.84646 c 0,0.0585 -0.0475,0.10594 -0.10594,0.10594 h -0.84646 c -0.0585,0 -0.10593,-0.0475 -0.10593,-0.10594 v -0.84646 c 0,-0.0584 -0.0475,-0.10594 -0.10594,-0.10594 h -2.01073 v 0.9524 c 0,0.0585 -0.0475,0.10594 -0.10594,0.10594 h -1.90479 c -0.0584,0 -0.10594,-0.0475 -0.10594,-0.10594 v -0.84646 c 0,-0.0584 -0.0475,-0.10594 -0.10593,-0.10594 h -0.84646 c -0.0585,0 -0.10594,-0.0475 -0.10594,-0.10593 v -2.96313 c 0,-0.0584 -0.0475,-0.10594 -0.10594,-0.10594 h -0.84646 c -0.0585,0 -0.10593,-0.0475 -0.10593,-0.10593 v -0.84646 c 0,-0.0585 -0.0475,-0.10594 -0.10594,-0.10594 h -0.84646 c -0.0585,0 -0.10594,0.0475 -0.10594,0.10594 v 0.84646 c 0,0.0584 -0.0475,0.10593 -0.10593,0.10593 h -0.9524 v 0.9524 c 0,0.0584 -0.0475,0.10594 -0.10594,0.10594 h -2.01073 v 0.95239 c 0,0.0584 0.0475,0.10594 0.10594,0.10594 h 1.90479 c 0.0584,0 0.10594,0.0475 0.10594,0.10594 v 1.90479 c 0,0.0585 0.0475,0.10594 0.10594,0.10594 h 2.96312 c 0.0584,0 0.10594,0.0475 0.10594,0.10593 v 0.84646 c 0,0.0584 -0.0475,0.10594 -0.10594,0.10594 h -1.90479 c -0.0585,0 -0.10594,0.0475 -0.10594,0.10594 v 1.90479 c 0,0.0584 0.0475,0.10594 0.10594,0.10594 h 0.9524 v -0.9524 c 0,-0.0584 0.0475,-0.10594 0.10593,-0.10594 h 1.9048 c 0.0584,0 0.10593,-0.0475 0.10593,-0.10593 v -0.84646 c 0,-0.0584 0.0475,-0.10594 0.10594,-0.10594 h 0.84646 c 0.0584,0 0.10594,0.0475 0.10594,0.10594 v 5.07979 c 0,0.0584 -0.0475,0.10594 -0.10594,0.10594 h -0.9524 v 0.95239 c 0,0.0584 0.0475,0.10594 0.10594,0.10594 h 0.84646 c 0.0584,0 0.10594,0.0475 0.10594,0.10594 v 0.84646 c 0,0.0584 0.0475,0.10593 0.10593,0.10593 h 1.9048 c 0.0584,0 0.10593,0.0475 0.10593,0.10594 v 0.84646 c 0,0.0585 -0.0475,0.10594 -0.10593,0.10594 h -1.9048 c -0.0584,0 -0.10593,0.0475 -0.10593,0.10593 v 0.84646 c 0,0.0585 0.0475,0.10594 0.10593,0.10594 h 0.84646 c 0.0584,0 0.10594,0.0475 0.10594,0.10594 v 0.84646 c 0,0.0585 0.0475,0.10593 0.10594,0.10593 h 2.01073 v -3.06906 c 0,-0.0585 0.0475,-0.10594 0.10593,-0.10594 h 0.84646 c 0.0584,0 0.10594,0.0475 0.10594,0.10594 v 2.96313 c 0,0.0585 -0.0475,0.10593 -0.10594,0.10593 h -0.95239 v 0.9524 c 0,0.0585 -0.0475,0.10594 -0.10594,0.10594 h -4.02146 c -0.0584,0 -0.10594,-0.0475 -0.10594,-0.10594 v -1.90479 c 0,-0.0585 -0.0475,-0.10594 -0.10593,-0.10594 h -0.84646 c -0.0585,0 -0.10594,-0.0475 -0.10594,-0.10594 v -1.90479 c 0,-0.0585 -0.0475,-0.10594 -0.10594,-0.10594 h -0.84646 c -0.0585,0 -0.10593,0.0475 -0.10593,0.10594 v 1.90479 c 0,0.0585 -0.0475,0.10594 -0.10594,0.10594 h -0.9524 v 0.9524 c 0,0.0585 0.0475,0.10593 0.10594,0.10593 h 0.84646 c 0.0584,0 0.10594,0.0475 0.10594,0.10594 v 0.84646 c 0,0.0585 -0.0475,0.10594 -0.10594,0.10594 h -4.02146 c -0.0584,0 -0.10594,-0.0475 -0.10594,-0.10594 v -0.84646 c 0,-0.0585 0.0475,-0.10594 0.10594,-0.10594 h 1.90479 c 0.0584,0 0.10594,-0.0475 0.10594,-0.10593 v -0.84646 c 0,-0.0585 0.0475,-0.10594 0.10594,-0.10594 h 0.95239 v -2.01073 c 0,-0.0585 -0.0475,-0.10594 -0.10593,-0.10594 h -0.84646 c -0.0584,0 -0.10594,-0.0475 -0.10594,-0.10593 v -0.84646 c 0,-0.0584 0.0475,-0.10594 0.10594,-0.10594 h 1.90479 c 0.0584,0 0.10594,-0.0475 0.10594,-0.10594 v -1.90479 c 0,-0.0584 0.0475,-0.10594 0.10593,-0.10594 h 0.9524 v -2.01073 c 0,-0.0584 -0.0475,-0.10593 -0.10594,-0.10593 h -0.95239 v 0.95239 c 0,0.0585 -0.0475,0.10594 -0.10594,0.10594 h -1.90479 c -0.0584,0 -0.10594,-0.0475 -0.10594,-0.10594 v -0.84646 c 0,-0.0584 -0.0475,-0.10593 -0.10594,-0.10593 h -0.84646 c -0.0585,0 -0.10593,0.0475 -0.10593,0.10593 v 1.9048 c 0,0.0584 0.0475,0.10593 0.10593,0.10593 h 1.9048 c 0.0584,0 0.10593,0.0475 0.10593,0.10594 v 0.84646 c 0,0.0584 -0.0475,0.10594 -0.10593,0.10594 h -2.96313 c -0.0584,0 -0.10594,0.0475 -0.10594,0.10593 v 0.84646 c 0,0.0584 0.0475,0.10594 0.10594,0.10594 h 0.84646 c 0.0585,0 0.10594,0.0475 0.10594,0.10594 v 1.90479 c 0,0.0585 -0.0475,0.10594 -0.10594,0.10594 h -0.84646 c -0.0584,0 -0.10594,-0.0475 -0.10594,-0.10594 v -0.84646 c 0,-0.0585 -0.0475,-0.10594 -0.10593,-0.10594 h -0.84646 c -0.0584,0 -0.10594,0.0475 -0.10594,0.10594 v 4.02146 c 0,0.0585 -0.0475,0.10594 -0.10594,0.10594 h -0.84646 c -0.0584,0 -0.10593,-0.0475 -0.10593,-0.10594 v -7.19646 c 0,-0.0584 -0.0475,-0.10594 -0.10594,-0.10594 h -7.19646 c -0.0585,0 -0.10594,-0.0475 -0.10594,-0.10593 v -1.9048 c 0,-0.0584 0.0475,-0.10593 0.10594,-0.10593 h 0.84646 c 0.0584,0 0.10594,-0.0475 0.10594,-0.10594 v -0.9524 h -0.10594 -0.84646 c -0.0585,0 -0.10594,-0.0475 -0.10594,-0.10593 v -2.96313 c 0,-0.0584 0.0475,-0.10594 0.10594,-0.10594 h 1.90479 c 0.0584,0 0.10594,0.0475 0.10594,0.10594 v 0.84646 c 0,0.0585 0.0475,0.10594 0.10594,0.10594 h 6.13812 c 0.0585,0 0.10594,0.0475 0.10594,0.10593 v 0.9524 h 0.9524 c 0.0585,0 0.10593,0.0475 0.10593,0.10594 v 0.95239 h 0.9524 c 0.0585,0 0.10594,-0.0475 0.10594,-0.10593 v -2.96313 c 0,-0.0584 -0.0475,-0.10594 -0.10594,-0.10594 h -1.90479 c -0.0584,0 -0.10594,-0.0475 -0.10594,-0.10593 v -2.01073 h -4.23333 v 1.05833 h 3.06906 c 0.0584,0 0.10594,0.0475 0.10594,0.10594 v 0.84646 c 0,0.0584 -0.0475,0.10593 -0.10594,0.10593 h -2.96313 c -0.0584,0 -0.10593,-0.0475 -0.10593,-0.10593 v -0.9524 h -0.10594 -2.96313 c -0.0584,0 -0.10593,-0.0475 -0.10593,-0.10594 v -0.84646 c 0,-0.0584 0.0475,-0.10593 0.10593,-0.10593 h 3.06907 v -2.01073 c 0,-0.0585 -0.0475,-0.10594 -0.10594,-0.10594 h -4.02146 c -0.0585,0 -0.10594,-0.0475 -0.10594,-0.10594 v -0.84646 c 0,-0.0584 0.0475,-0.10593 0.10594,-0.10593 h 7.19646 c 0.0584,0 0.10594,-0.0475 0.10594,-0.10594 v -7.19646 c 0,-0.0584 0.0475,-0.10594 0.10593,-0.10594 z m 0.9524,10.58334 h 1.05833 v -0.9524 c 0,-0.0584 0.0475,-0.10594 0.10594,-0.10594 h 2.01073 v -0.95239 c 0,-0.0585 -0.0475,-0.10594 -0.10594,-0.10594 h -2.96312 c -0.0584,0 -0.10594,0.0475 -0.10594,0.10594 z m 1.05833,5.29166 h -0.10593 -0.9524 v 3.06907 c 0,0.0584 0.0475,0.10593 0.10594,0.10593 h 0.84646 c 0.0585,0 0.10593,-0.0475 0.10593,-0.10593 z m -1.05833,0 v -1.05833 h -7.3024 c -0.0584,0 -0.10593,0.0475 -0.10593,0.10594 v 0.95239 z m 6.35,3.175 v 0.9524 c 0,0.0584 0.0475,0.10594 0.10594,0.10594 h 0.95239 v -0.9524 c 0,-0.0584 -0.0475,-0.10594 -0.10593,-0.10594 z m 3.175,-6.35 v -2.01073 c 0,-0.0584 -0.0475,-0.10593 -0.10594,-0.10593 h -0.84646 c -0.0584,0 -0.10593,0.0475 -0.10593,0.10593 v 1.9048 c 0,0.0584 0.0475,0.10593 0.10593,0.10593 z m 7.40833,3.175 v -1.05833 h -2.01073 c -0.0585,0 -0.10593,0.0475 -0.10593,0.10594 v 0.84646 c 0,0.0585 0.0475,0.10593 0.10593,0.10593 z m -3.175,-4.23333 v -0.9524 c 0,-0.0584 -0.0475,-0.10593 -0.10593,-0.10593 h -0.9524 v 0.95239 c 0,0.0584 0.0475,0.10594 0.10594,0.10594 z m -1.05833,-1.05833 v -1.05834 h -0.9524 c -0.0585,0 -0.10593,0.0475 -0.10593,0.10594 v 0.84646 c 0,0.0584 0.0475,0.10594 0.10593,0.10594 z m 0,-1.05834 h 3.175 v -0.95239 c 0,-0.0585 -0.0475,-0.10594 -0.10594,-0.10594 h -2.96312 c -0.0584,0 -0.10594,0.0475 -0.10594,0.10594 z m 3.175,0 v 0.9524 c 0,0.0584 0.0475,0.10594 0.10594,0.10594 h 0.84646 c 0.0585,0 0.10593,-0.0475 0.10593,-0.10594 v -0.9524 z m -12.7,-7.40833 h -0.10594 -0.95239 v 0.9524 c 0,0.0584 0.0475,0.10593 0.10593,0.10593 h 0.84646 c 0.0584,0 0.10594,-0.0475 0.10594,-0.10593 z m -2.11667,0 h -0.95239 c -0.0584,0 -0.10594,0.0475 -0.10594,0.10594 v 2.96312 c 0,0.0584 0.0475,0.10594 0.10594,0.10594 h 0.95239 z m 0,3.175 v 1.05833 h 1.05834 v -1.05833 z m 1.05834,0 h 0.95239 c 0.0584,0 0.10594,-0.0475 0.10594,-0.10594 v -0.84646 c 0,-0.0584 -0.0475,-0.10593 -0.10594,-0.10593 h -0.84646 c -0.0585,0 -0.10593,0.0475 -0.10593,0.10593 z m 0,1.05833 v 0.9524 c 0,0.0584 0.0475,0.10594 0.10593,0.10594 h 0.84646 c 0.0584,0 0.10594,-0.0475 0.10594,-0.10594 v -0.84646 c 0,-0.0584 -0.0475,-0.10594 -0.10594,-0.10594 z m -1.05834,0 h -0.95239 c -0.0584,0 -0.10594,0.0475 -0.10594,0.10594 v 0.84646 c 0,0.0584 0.0475,0.10594 0.10594,0.10594 h 0.84646 c 0.0585,0 0.10593,-0.0475 0.10593,-0.10594 z m -8.36073,-5.29166 h 5.0798 c 0.0584,0 0.10593,0.0475 0.10593,0.10593 v 5.0798 c 0,0.0584 -0.0475,0.10593 -0.10593,0.10593 h -5.0798 c -0.0584,0 -0.10593,-0.0475 -0.10593,-0.10593 v -5.0798 c 0,-0.0584 0.0475,-0.10593 0.10593,-0.10593 z m 19.05,0 h 5.0798 c 0.0585,0 0.10593,0.0475 0.10593,0.10593 v 5.0798 c 0,0.0584 -0.0475,0.10593 -0.10593,0.10593 h -5.0798 c -0.0585,0 -0.10593,-0.0475 -0.10593,-0.10593 v -5.0798 c 0,-0.0584 0.0475,-0.10593 0.10593,-0.10593 z m -17.99166,1.05833 c -0.0585,0 -0.10594,0.0475 -0.10594,0.10594 v 2.96312 c 0,0.0584 0.0475,0.10594 0.10594,0.10594 h 2.96312 c 0.0584,0 0.10594,-0.0475 0.10594,-0.10594 v -2.96312 c 0,-0.0584 -0.0475,-0.10594 -0.10594,-0.10594 z m 11.64166,0 c -0.0585,0 -0.10593,0.0475 -0.10593,0.10594 v 1.90479 c 0,0.0585 0.0475,0.10594 0.10593,0.10594 h 2.01073 v -2.01073 c 0,-0.0584 -0.0475,-0.10594 -0.10593,-0.10594 z m 2.01073,2.11667 v 1.05833 h 0.9524 c 0.0584,0 0.10594,0.0475 0.10594,0.10594 v 1.90479 c 0,0.0584 -0.0475,0.10594 -0.10594,0.10594 h -0.9524 v 2.01073 c 0,0.0584 0.0475,0.10593 0.10594,0.10593 h 2.96313 c 0.0584,0 0.10593,-0.0475 0.10593,-0.10593 v -0.84646 c 0,-0.0585 -0.0475,-0.10594 -0.10593,-0.10594 h -0.84646 c -0.0584,0 -0.10594,-0.0475 -0.10594,-0.10594 v -4.02146 c 0,-0.0584 -0.0475,-0.10593 -0.10594,-0.10593 z m 0,3.175 v -2.11667 h -2.01073 c -0.0585,0 -0.10593,0.0475 -0.10593,0.10594 v 0.95239 h 0.95239 c 0.0584,0 0.10594,0.0475 0.10594,0.10594 v 0.84646 c 0,0.0584 0.0475,0.10594 0.10594,0.10594 z m -2.11666,-1.05834 h -0.9524 c -0.0585,0 -0.10594,0.0475 -0.10594,0.10594 v 0.84646 c 0,0.0584 0.0475,0.10594 0.10594,0.10594 h 0.84646 c 0.0584,0 0.10594,-0.0475 0.10594,-0.10594 z m 7.51427,-4.23333 c -0.0584,0 -0.10594,0.0475 -0.10594,0.10594 v 2.96312 c 0,0.0584 0.0475,0.10594 0.10594,0.10594 h 2.96312 c 0.0585,0 0.10594,-0.0475 0.10594,-0.10594 v -2.96312 c 0,-0.0584 -0.0475,-0.10594 -0.10594,-0.10594 z m -14.81667,6.35 c -0.0584,0 -0.10594,0.0475 -0.10594,0.10594 v 0.84646 c 0,0.0584 0.0475,0.10593 0.10594,0.10593 h 0.84646 c 0.0584,0 0.10594,-0.0475 0.10594,-0.10593 v -0.84646 c 0,-0.0585 -0.0475,-0.10594 -0.10594,-0.10594 z m 11.64167,6.35 h 0.84646 c 0.0584,0 0.10593,0.0475 0.10593,0.10594 v 0.84646 c 0,0.0585 -0.0475,0.10593 -0.10593,0.10593 h -0.84646 c -0.0584,0 -0.10594,-0.0475 -0.10594,-0.10593 v -0.84646 c 0,-0.0584 0.0475,-0.10594 0.10594,-0.10594 z m 2.11666,0 h 0.84646 c 0.0584,0 0.10594,0.0475 0.10594,0.10594 v 0.84646 c 0,0.0585 -0.0475,0.10593 -0.10594,0.10593 h -0.84646 c -0.0585,0 -0.10593,-0.0475 -0.10593,-0.10593 v -0.84646 c 0,-0.0584 0.0475,-0.10594 0.10593,-0.10594 z m -17.99166,2.11667 c -0.0585,0 -0.10594,0.0475 -0.10594,0.10593 v 0.84646 c 0,0.0585 0.0475,0.10594 0.10594,0.10594 h 1.90479 c 0.0584,0 0.10594,-0.0475 0.10594,-0.10594 v -0.84646 c 0,-0.0584 -0.0475,-0.10593 -0.10594,-0.10593 z m 3.175,0 c -0.0584,0 -0.10594,0.0475 -0.10594,0.10593 v 0.84646 c 0,0.0585 0.0475,0.10594 0.10594,0.10594 h 1.90479 c 0.0584,0 0.10594,-0.0475 0.10594,-0.10594 v -0.84646 c 0,-0.0584 -0.0475,-0.10593 -0.10594,-0.10593 z m 12.7,1.05833 h 2.96312 c 0.0584,0 0.10594,0.0475 0.10594,0.10594 v 2.96312 c 0,0.0584 -0.0475,0.10594 -0.10594,0.10594 h -2.96312 c -0.0584,0 -0.10594,-0.0475 -0.10594,-0.10594 v -2.96312 c 0,-0.0585 0.0475,-0.10594 0.10594,-0.10594 z m 4.23333,0 h 0.84646 c 0.0585,0 0.10594,0.0475 0.10594,0.10594 v 1.90479 c 0,0.0584 0.0475,0.10594 0.10593,0.10594 h 0.84646 c 0.0585,0 0.10594,0.0475 0.10594,0.10593 v 0.84646 c 0,0.0584 0.0475,0.10594 0.10594,0.10594 h 0.84646 c 0.0585,0 0.10593,-0.0475 0.10593,-0.10594 v -0.84646 c 0,-0.0585 0.0475,-0.10593 0.10594,-0.10593 h 0.84646 c 0.0585,0 0.10594,0.0475 0.10594,0.10593 v 5.0798 c 0,0.0585 -0.0475,0.10593 -0.10594,0.10593 h -1.90479 c -0.0585,0 -0.10594,-0.0475 -0.10594,-0.10593 v -0.84646 c 0,-0.0585 0.0475,-0.10594 0.10594,-0.10594 h 0.84646 c 0.0585,0 0.10593,-0.0475 0.10593,-0.10594 v -0.84646 c 0,-0.0585 -0.0475,-0.10593 -0.10593,-0.10593 h -0.84646 c -0.0585,0 -0.10594,-0.0475 -0.10594,-0.10594 v -0.84646 c 0,-0.0585 -0.0475,-0.10594 -0.10594,-0.10594 h -0.84646 c -0.0585,0 -0.10593,-0.0475 -0.10593,-0.10593 v -0.84646 c 0,-0.0584 -0.0475,-0.10594 -0.10594,-0.10594 h -0.84646 c -0.0585,0 -0.10594,-0.0475 -0.10594,-0.10594 v -2.96312 c 0,-0.0585 0.0475,-0.10594 0.10594,-0.10594 z m 2.11667,0 h 0.84646 c 0.0585,0 0.10593,0.0475 0.10593,0.10594 v 0.84646 c 0,0.0584 -0.0475,0.10593 -0.10593,0.10593 h -0.84646 c -0.0585,0 -0.10594,-0.0475 -0.10594,-0.10593 v -0.84646 c 0,-0.0585 0.0475,-0.10594 0.10594,-0.10594 z m -5.29167,1.05833 c -0.0584,0 -0.10594,0.0475 -0.10594,0.10594 v 0.84646 c 0,0.0584 0.0475,0.10594 0.10594,0.10594 h 0.84646 c 0.0584,0 0.10594,-0.0475 0.10594,-0.10594 v -0.84646 c 0,-0.0584 -0.0475,-0.10594 -0.10594,-0.10594 z m -17.99167,1.05834 h 5.0798 c 0.0584,0 0.10593,0.0475 0.10593,0.10593 v 5.0798 c 0,0.0585 -0.0475,0.10593 -0.10593,0.10593 h -5.0798 c -0.0584,0 -0.10593,-0.0475 -0.10593,-0.10593 v -5.0798 c 0,-0.0585 0.0475,-0.10593 0.10593,-0.10593 z m 1.05834,1.05833 c -0.0585,0 -0.10594,0.0475 -0.10594,0.10594 v 2.96312 c 0,0.0585 0.0475,0.10594 0.10594,0.10594 h 2.96312 c 0.0584,0 0.10594,-0.0475 0.10594,-0.10594 v -2.96312 c 0,-0.0584 -0.0475,-0.10594 -0.10594,-0.10594 z m 20.10833,2.11667 h 0.84646 c 0.0585,0 0.10594,0.0475 0.10594,0.10593 v 1.9048 c 0,0.0585 -0.0475,0.10593 -0.10594,0.10593 h -0.84646 c -0.0585,0 -0.10594,-0.0475 -0.10594,-0.10593 v -1.9048 c 0,-0.0585 0.0475,-0.10593 0.10594,-0.10593 z" />
  </g>
</svg>
