%TF.GenerationSoftware,KiCad,Pcbnew,9.0.7*%
%TF.CreationDate,2026-03-09T09:26:12+01:00*%
%TF.ProjectId,ampel_v1,616d7065-6c5f-4763-912e-6b696361645f,rev?*%
%TF.SameCoordinates,Original*%
%TF.FileFunction,Legend,Top*%
%TF.FilePolarity,Positive*%
%FSLAX46Y46*%
G04 Gerber Fmt 4.6, Leading zero omitted, Abs format (unit mm)*
G04 Created by KiCad (PCBNEW 9.0.7) date 2026-03-09 09:26:12*
%MOMM*%
%LPD*%
G01*
G04 APERTURE LIST*
%ADD10C,0.150000*%
%ADD11C,0.120000*%
G04 APERTURE END LIST*
D10*
X106985000Y-56185000D02*
X152705000Y-56185000D01*
X152705000Y-90475000D01*
X106985000Y-90475000D01*
X106985000Y-56185000D01*
G36*
X106985000Y-56185000D02*
G01*
X152705000Y-56185000D01*
X152705000Y-90475000D01*
X106985000Y-90475000D01*
X106985000Y-56185000D01*
G37*
X163233541Y-94123152D02*
X163471636Y-94789819D01*
X163471636Y-94789819D02*
X163709731Y-94123152D01*
X164614493Y-94789819D02*
X164043065Y-94789819D01*
X164328779Y-94789819D02*
X164328779Y-93789819D01*
X164328779Y-93789819D02*
X164233541Y-93932676D01*
X164233541Y-93932676D02*
X164138303Y-94027914D01*
X164138303Y-94027914D02*
X164043065Y-94075533D01*
X161475952Y-86484819D02*
X160904524Y-86484819D01*
X161190238Y-86484819D02*
X161190238Y-85484819D01*
X161190238Y-85484819D02*
X161095000Y-85627676D01*
X161095000Y-85627676D02*
X160999762Y-85722914D01*
X160999762Y-85722914D02*
X160904524Y-85770533D01*
X161904524Y-86484819D02*
X161904524Y-85484819D01*
X161999762Y-86103866D02*
X162285476Y-86484819D01*
X162285476Y-85818152D02*
X161904524Y-86199104D01*
X158888333Y-86484819D02*
X158555000Y-86008628D01*
X158316905Y-86484819D02*
X158316905Y-85484819D01*
X158316905Y-85484819D02*
X158697857Y-85484819D01*
X158697857Y-85484819D02*
X158793095Y-85532438D01*
X158793095Y-85532438D02*
X158840714Y-85580057D01*
X158840714Y-85580057D02*
X158888333Y-85675295D01*
X158888333Y-85675295D02*
X158888333Y-85818152D01*
X158888333Y-85818152D02*
X158840714Y-85913390D01*
X158840714Y-85913390D02*
X158793095Y-85961009D01*
X158793095Y-85961009D02*
X158697857Y-86008628D01*
X158697857Y-86008628D02*
X158316905Y-86008628D01*
X159793095Y-85484819D02*
X159316905Y-85484819D01*
X159316905Y-85484819D02*
X159269286Y-85961009D01*
X159269286Y-85961009D02*
X159316905Y-85913390D01*
X159316905Y-85913390D02*
X159412143Y-85865771D01*
X159412143Y-85865771D02*
X159650238Y-85865771D01*
X159650238Y-85865771D02*
X159745476Y-85913390D01*
X159745476Y-85913390D02*
X159793095Y-85961009D01*
X159793095Y-85961009D02*
X159840714Y-86056247D01*
X159840714Y-86056247D02*
X159840714Y-86294342D01*
X159840714Y-86294342D02*
X159793095Y-86389580D01*
X159793095Y-86389580D02*
X159745476Y-86437200D01*
X159745476Y-86437200D02*
X159650238Y-86484819D01*
X159650238Y-86484819D02*
X159412143Y-86484819D01*
X159412143Y-86484819D02*
X159316905Y-86437200D01*
X159316905Y-86437200D02*
X159269286Y-86389580D01*
X158991667Y-78817200D02*
X159134524Y-78864819D01*
X159134524Y-78864819D02*
X159372619Y-78864819D01*
X159372619Y-78864819D02*
X159467857Y-78817200D01*
X159467857Y-78817200D02*
X159515476Y-78769580D01*
X159515476Y-78769580D02*
X159563095Y-78674342D01*
X159563095Y-78674342D02*
X159563095Y-78579104D01*
X159563095Y-78579104D02*
X159515476Y-78483866D01*
X159515476Y-78483866D02*
X159467857Y-78436247D01*
X159467857Y-78436247D02*
X159372619Y-78388628D01*
X159372619Y-78388628D02*
X159182143Y-78341009D01*
X159182143Y-78341009D02*
X159086905Y-78293390D01*
X159086905Y-78293390D02*
X159039286Y-78245771D01*
X159039286Y-78245771D02*
X158991667Y-78150533D01*
X158991667Y-78150533D02*
X158991667Y-78055295D01*
X158991667Y-78055295D02*
X159039286Y-77960057D01*
X159039286Y-77960057D02*
X159086905Y-77912438D01*
X159086905Y-77912438D02*
X159182143Y-77864819D01*
X159182143Y-77864819D02*
X159420238Y-77864819D01*
X159420238Y-77864819D02*
X159563095Y-77912438D01*
X159896429Y-77864819D02*
X160134524Y-78864819D01*
X160134524Y-78864819D02*
X160325000Y-78150533D01*
X160325000Y-78150533D02*
X160515476Y-78864819D01*
X160515476Y-78864819D02*
X160753572Y-77864819D01*
X161658333Y-78864819D02*
X161086905Y-78864819D01*
X161372619Y-78864819D02*
X161372619Y-77864819D01*
X161372619Y-77864819D02*
X161277381Y-78007676D01*
X161277381Y-78007676D02*
X161182143Y-78102914D01*
X161182143Y-78102914D02*
X161086905Y-78150533D01*
X160779819Y-59526666D02*
X160303628Y-59859999D01*
X160779819Y-60098094D02*
X159779819Y-60098094D01*
X159779819Y-60098094D02*
X159779819Y-59717142D01*
X159779819Y-59717142D02*
X159827438Y-59621904D01*
X159827438Y-59621904D02*
X159875057Y-59574285D01*
X159875057Y-59574285D02*
X159970295Y-59526666D01*
X159970295Y-59526666D02*
X160113152Y-59526666D01*
X160113152Y-59526666D02*
X160208390Y-59574285D01*
X160208390Y-59574285D02*
X160256009Y-59621904D01*
X160256009Y-59621904D02*
X160303628Y-59717142D01*
X160303628Y-59717142D02*
X160303628Y-60098094D01*
X159875057Y-59145713D02*
X159827438Y-59098094D01*
X159827438Y-59098094D02*
X159779819Y-59002856D01*
X159779819Y-59002856D02*
X159779819Y-58764761D01*
X159779819Y-58764761D02*
X159827438Y-58669523D01*
X159827438Y-58669523D02*
X159875057Y-58621904D01*
X159875057Y-58621904D02*
X159970295Y-58574285D01*
X159970295Y-58574285D02*
X160065533Y-58574285D01*
X160065533Y-58574285D02*
X160208390Y-58621904D01*
X160208390Y-58621904D02*
X160779819Y-59193332D01*
X160779819Y-59193332D02*
X160779819Y-58574285D01*
X164589819Y-59526666D02*
X164113628Y-59859999D01*
X164589819Y-60098094D02*
X163589819Y-60098094D01*
X163589819Y-60098094D02*
X163589819Y-59717142D01*
X163589819Y-59717142D02*
X163637438Y-59621904D01*
X163637438Y-59621904D02*
X163685057Y-59574285D01*
X163685057Y-59574285D02*
X163780295Y-59526666D01*
X163780295Y-59526666D02*
X163923152Y-59526666D01*
X163923152Y-59526666D02*
X164018390Y-59574285D01*
X164018390Y-59574285D02*
X164066009Y-59621904D01*
X164066009Y-59621904D02*
X164113628Y-59717142D01*
X164113628Y-59717142D02*
X164113628Y-60098094D01*
X164589819Y-58574285D02*
X164589819Y-59145713D01*
X164589819Y-58859999D02*
X163589819Y-58859999D01*
X163589819Y-58859999D02*
X163732676Y-58955237D01*
X163732676Y-58955237D02*
X163827914Y-59050475D01*
X163827914Y-59050475D02*
X163875533Y-59145713D01*
X156969819Y-59526666D02*
X156493628Y-59859999D01*
X156969819Y-60098094D02*
X155969819Y-60098094D01*
X155969819Y-60098094D02*
X155969819Y-59717142D01*
X155969819Y-59717142D02*
X156017438Y-59621904D01*
X156017438Y-59621904D02*
X156065057Y-59574285D01*
X156065057Y-59574285D02*
X156160295Y-59526666D01*
X156160295Y-59526666D02*
X156303152Y-59526666D01*
X156303152Y-59526666D02*
X156398390Y-59574285D01*
X156398390Y-59574285D02*
X156446009Y-59621904D01*
X156446009Y-59621904D02*
X156493628Y-59717142D01*
X156493628Y-59717142D02*
X156493628Y-60098094D01*
X155969819Y-59193332D02*
X155969819Y-58574285D01*
X155969819Y-58574285D02*
X156350771Y-58907618D01*
X156350771Y-58907618D02*
X156350771Y-58764761D01*
X156350771Y-58764761D02*
X156398390Y-58669523D01*
X156398390Y-58669523D02*
X156446009Y-58621904D01*
X156446009Y-58621904D02*
X156541247Y-58574285D01*
X156541247Y-58574285D02*
X156779342Y-58574285D01*
X156779342Y-58574285D02*
X156874580Y-58621904D01*
X156874580Y-58621904D02*
X156922200Y-58669523D01*
X156922200Y-58669523D02*
X156969819Y-58764761D01*
X156969819Y-58764761D02*
X156969819Y-59050475D01*
X156969819Y-59050475D02*
X156922200Y-59145713D01*
X156922200Y-59145713D02*
X156874580Y-59193332D01*
X104169580Y-66571666D02*
X104217200Y-66619285D01*
X104217200Y-66619285D02*
X104264819Y-66762142D01*
X104264819Y-66762142D02*
X104264819Y-66857380D01*
X104264819Y-66857380D02*
X104217200Y-67000237D01*
X104217200Y-67000237D02*
X104121961Y-67095475D01*
X104121961Y-67095475D02*
X104026723Y-67143094D01*
X104026723Y-67143094D02*
X103836247Y-67190713D01*
X103836247Y-67190713D02*
X103693390Y-67190713D01*
X103693390Y-67190713D02*
X103502914Y-67143094D01*
X103502914Y-67143094D02*
X103407676Y-67095475D01*
X103407676Y-67095475D02*
X103312438Y-67000237D01*
X103312438Y-67000237D02*
X103264819Y-66857380D01*
X103264819Y-66857380D02*
X103264819Y-66762142D01*
X103264819Y-66762142D02*
X103312438Y-66619285D01*
X103312438Y-66619285D02*
X103360057Y-66571666D01*
X104264819Y-65619285D02*
X104264819Y-66190713D01*
X104264819Y-65904999D02*
X103264819Y-65904999D01*
X103264819Y-65904999D02*
X103407676Y-66000237D01*
X103407676Y-66000237D02*
X103502914Y-66095475D01*
X103502914Y-66095475D02*
X103550533Y-66190713D01*
X104264819Y-81116666D02*
X103788628Y-81449999D01*
X104264819Y-81688094D02*
X103264819Y-81688094D01*
X103264819Y-81688094D02*
X103264819Y-81307142D01*
X103264819Y-81307142D02*
X103312438Y-81211904D01*
X103312438Y-81211904D02*
X103360057Y-81164285D01*
X103360057Y-81164285D02*
X103455295Y-81116666D01*
X103455295Y-81116666D02*
X103598152Y-81116666D01*
X103598152Y-81116666D02*
X103693390Y-81164285D01*
X103693390Y-81164285D02*
X103741009Y-81211904D01*
X103741009Y-81211904D02*
X103788628Y-81307142D01*
X103788628Y-81307142D02*
X103788628Y-81688094D01*
X103598152Y-80259523D02*
X104264819Y-80259523D01*
X103217200Y-80497618D02*
X103931485Y-80735713D01*
X103931485Y-80735713D02*
X103931485Y-80116666D01*
D11*
%TO.C,J1*%
X114672000Y-96130000D02*
X116002000Y-96130000D01*
X114672000Y-97460000D02*
X114672000Y-96130000D01*
X117272000Y-96130000D02*
X135112000Y-96130000D01*
X117272000Y-98790000D02*
X117272000Y-96130000D01*
X117272000Y-98790000D02*
X135112000Y-98790000D01*
X135112000Y-98790000D02*
X135112000Y-96130000D01*
%TO.C,J3*%
X137532000Y-96130000D02*
X138862000Y-96130000D01*
X137532000Y-97460000D02*
X137532000Y-96130000D01*
X140132000Y-96130000D02*
X152892000Y-96130000D01*
X140132000Y-98790000D02*
X140132000Y-96130000D01*
X140132000Y-98790000D02*
X152892000Y-98790000D01*
X152892000Y-98790000D02*
X152892000Y-96130000D01*
%TO.C,J2*%
X105528000Y-47870000D02*
X106858000Y-47870000D01*
X105528000Y-49200000D02*
X105528000Y-47870000D01*
X108128000Y-47870000D02*
X131048000Y-47870000D01*
X108128000Y-50530000D02*
X108128000Y-47870000D01*
X108128000Y-50530000D02*
X131048000Y-50530000D01*
X131048000Y-50530000D02*
X131048000Y-47870000D01*
%TO.C,J4*%
X132452000Y-47870000D02*
X133782000Y-47870000D01*
X132452000Y-49200000D02*
X132452000Y-47870000D01*
X135052000Y-47870000D02*
X152892000Y-47870000D01*
X135052000Y-50530000D02*
X135052000Y-47870000D01*
X135052000Y-50530000D02*
X152892000Y-50530000D01*
X152892000Y-50530000D02*
X152892000Y-47870000D01*
%TO.C,R5*%
X157055000Y-84660000D02*
X163595000Y-84660000D01*
X157055000Y-84990000D02*
X157055000Y-84660000D01*
X157055000Y-87070000D02*
X157055000Y-87400000D01*
X157055000Y-87400000D02*
X163595000Y-87400000D01*
X163595000Y-84660000D02*
X163595000Y-84990000D01*
X163595000Y-87400000D02*
X163595000Y-87070000D01*
%TO.C,SW1*%
X156825000Y-77660000D02*
X156825000Y-79160000D01*
X158075000Y-81660000D02*
X162575000Y-81660000D01*
X162575000Y-75160000D02*
X158075000Y-75160000D01*
X163825000Y-79160000D02*
X163825000Y-77660000D01*
%TO.C,J5*%
X173854000Y-93844000D02*
X173854000Y-99044000D01*
X173854000Y-93844000D02*
X176454000Y-93844000D01*
X173854000Y-99044000D02*
X179054000Y-99044000D01*
X176454000Y-93844000D02*
X176454000Y-96444000D01*
X176454000Y-96444000D02*
X179054000Y-96444000D01*
X177724000Y-93844000D02*
X179054000Y-93844000D01*
X179054000Y-93844000D02*
X179054000Y-95174000D01*
X179054000Y-96444000D02*
X179054000Y-99044000D01*
%TO.C,R2*%
X158955000Y-56090000D02*
X158955000Y-62630000D01*
X158955000Y-62630000D02*
X159285000Y-62630000D01*
X159285000Y-56090000D02*
X158955000Y-56090000D01*
X161365000Y-56090000D02*
X161695000Y-56090000D01*
X161695000Y-56090000D02*
X161695000Y-62630000D01*
X161695000Y-62630000D02*
X161365000Y-62630000D01*
%TO.C,R1*%
X162765000Y-56090000D02*
X162765000Y-62630000D01*
X162765000Y-62630000D02*
X163095000Y-62630000D01*
X163095000Y-56090000D02*
X162765000Y-56090000D01*
X165175000Y-56090000D02*
X165505000Y-56090000D01*
X165505000Y-56090000D02*
X165505000Y-62630000D01*
X165505000Y-62630000D02*
X165175000Y-62630000D01*
%TO.C,R3*%
X155145000Y-56090000D02*
X155475000Y-56090000D01*
X155145000Y-62630000D02*
X155145000Y-56090000D01*
X155475000Y-62630000D02*
X155145000Y-62630000D01*
X157555000Y-62630000D02*
X157885000Y-62630000D01*
X157885000Y-56090000D02*
X157555000Y-56090000D01*
X157885000Y-62630000D02*
X157885000Y-56090000D01*
%TO.C,C1*%
X103810000Y-63695000D02*
X103810000Y-63735000D01*
X103810000Y-69115000D02*
X103810000Y-69075000D01*
X102140000Y-69075000D02*
X105480000Y-69075000D01*
X105480000Y-63735000D01*
X102140000Y-63735000D01*
X102140000Y-69075000D01*
%TO.C,R4*%
X102440000Y-77680000D02*
X102440000Y-84220000D01*
X102440000Y-84220000D02*
X102770000Y-84220000D01*
X102770000Y-77680000D02*
X102440000Y-77680000D01*
X104850000Y-77680000D02*
X105180000Y-77680000D01*
X105180000Y-77680000D02*
X105180000Y-84220000D01*
X105180000Y-84220000D02*
X104850000Y-84220000D01*
%TD*%
M02*
