M48
; DRILL file {KiCad 9.0.7} date 2026-05-12T17:19:31+0200
; FORMAT={-:-/ absolute / metric / decimal}
; #@! TF.CreationDate,2026-05-12T17:19:31+02:00
; #@! TF.GenerationSoftware,Kicad,Pcbnew,9.0.7
; #@! TF.FileFunction,NonPlated,1,2,NPTH
FMAT,2
METRIC
; #@! TA.AperFunction,NonPlated,NPTH,ComponentDrill
T1C0.600
%
G90
G05
T1
X167.056Y-49.724
X167.056Y-50.724
X167.056Y-51.724
X167.056Y-52.724
X167.056Y-53.724
X167.056Y-92.412
X167.056Y-93.412
X167.056Y-94.412
X167.056Y-95.412
X167.056Y-96.412
X170.915Y-49.724
X170.915Y-50.724
X170.915Y-51.724
X170.915Y-52.724
X170.915Y-53.724
X172.947Y-92.363
X172.947Y-93.363
X172.947Y-94.363
X172.947Y-95.363
X172.947Y-96.363
M30
