%TF.GenerationSoftware,KiCad,Pcbnew,9.0.7*%
%TF.CreationDate,2026-05-12T17:19:37+02:00*%
%TF.ProjectId,ampel_kicad,616d7065-6c5f-46b6-9963-61642e6b6963,rev?*%
%TF.SameCoordinates,Original*%
%TF.FileFunction,Copper,L1,Top*%
%TF.FilePolarity,Positive*%
%FSLAX46Y46*%
G04 Gerber Fmt 4.6, Leading zero omitted, Abs format (unit mm)*
G04 Created by KiCad (PCBNEW 9.0.7) date 2026-05-12 17:19:37*
%MOMM*%
%LPD*%
G01*
G04 APERTURE LIST*
%TA.AperFunction,ComponentPad*%
%ADD10C,2.000000*%
%TD*%
%TA.AperFunction,ComponentPad*%
%ADD11R,1.800000X1.800000*%
%TD*%
%TA.AperFunction,ComponentPad*%
%ADD12C,1.800000*%
%TD*%
%TA.AperFunction,ComponentPad*%
%ADD13R,1.700000X1.700000*%
%TD*%
%TA.AperFunction,ComponentPad*%
%ADD14C,1.700000*%
%TD*%
%TA.AperFunction,ComponentPad*%
%ADD15C,1.600000*%
%TD*%
%TA.AperFunction,ComponentPad*%
%ADD16O,1.700000X1.700000*%
%TD*%
%TA.AperFunction,Conductor*%
%ADD17C,0.250000*%
%TD*%
G04 APERTURE END LIST*
D10*
%TO.P,SW1,1,1*%
%TO.N,GND*%
X157000000Y-76196000D03*
X163500000Y-76196000D03*
%TO.P,SW1,2,2*%
%TO.N,/\u002A5*%
X157000000Y-80696000D03*
X163500000Y-80696000D03*
%TD*%
D11*
%TO.P,Red1,1,K*%
%TO.N,Net-(Green1-K)*%
X177616000Y-50978000D03*
D12*
%TO.P,Red1,2,A*%
%TO.N,Net-(J5-Pin_2)*%
X175076000Y-50978000D03*
%TD*%
D13*
%TO.P,J5,1,Pin_1*%
%TO.N,Net-(J5-Pin_1)*%
X177724000Y-95174000D03*
D14*
%TO.P,J5,2,Pin_2*%
%TO.N,Net-(J5-Pin_2)*%
X175184000Y-95174000D03*
%TO.P,J5,3,Pin_3*%
%TO.N,Net-(Green1-K)*%
X177724000Y-97714000D03*
%TO.P,J5,4,Pin_4*%
%TO.N,Net-(Green1-A)*%
X175184000Y-97714000D03*
%TD*%
D15*
%TO.P,R2,1*%
%TO.N,/\u002A3*%
X160325000Y-55550000D03*
%TO.P,R2,2*%
%TO.N,Net-(J6-Pin_3)*%
X160325000Y-63170000D03*
%TD*%
%TO.P,R1,1*%
%TO.N,/2*%
X164135000Y-55550000D03*
%TO.P,R1,2*%
%TO.N,Net-(J6-Pin_4)*%
X164135000Y-63170000D03*
%TD*%
D13*
%TO.P,J6,1,Pin_1*%
%TO.N,GND*%
X160980000Y-68230000D03*
D14*
%TO.P,J6,2,Pin_2*%
%TO.N,Net-(J6-Pin_2)*%
X160980000Y-70770000D03*
%TO.P,J6,3,Pin_3*%
%TO.N,Net-(J6-Pin_3)*%
X163520000Y-68230000D03*
%TO.P,J6,4,Pin_4*%
%TO.N,Net-(J6-Pin_4)*%
X163520000Y-70770000D03*
%TD*%
D15*
%TO.P,R3,1*%
%TO.N,Net-(J6-Pin_2)*%
X156515000Y-63170000D03*
%TO.P,R3,2*%
%TO.N,/4*%
X156515000Y-55550000D03*
%TD*%
D11*
%TO.P,Green1,1,K*%
%TO.N,Net-(Green1-K)*%
X177724000Y-62916000D03*
D12*
%TO.P,Green1,2,A*%
%TO.N,Net-(Green1-A)*%
X175184000Y-62916000D03*
%TD*%
D11*
%TO.P,Yellow1,1,K*%
%TO.N,Net-(Green1-K)*%
X177724000Y-56960000D03*
D12*
%TO.P,Yellow1,2,A*%
%TO.N,Net-(J5-Pin_1)*%
X175184000Y-56960000D03*
%TD*%
D15*
%TO.P,R4 10k,1*%
%TO.N,/\u002A5*%
X156388000Y-86030000D03*
%TO.P,R4 10k,2*%
%TO.N,+5V*%
X164008000Y-86030000D03*
%TD*%
D13*
%TO.P,J1,1,Pin_1*%
%TO.N,unconnected-(J1-Pin_1-Pad1)*%
X116002000Y-97460000D03*
D16*
%TO.P,J1,2,Pin_2*%
%TO.N,/IOREF*%
X118542000Y-97460000D03*
%TO.P,J1,3,Pin_3*%
%TO.N,/~{RESET}*%
X121082000Y-97460000D03*
%TO.P,J1,4,Pin_4*%
%TO.N,+3V3*%
X123622000Y-97460000D03*
%TO.P,J1,5,Pin_5*%
%TO.N,+5V*%
X126162000Y-97460000D03*
%TO.P,J1,6,Pin_6*%
%TO.N,GND*%
X128702000Y-97460000D03*
%TO.P,J1,7,Pin_7*%
X131242000Y-97460000D03*
%TO.P,J1,8,Pin_8*%
%TO.N,VCC*%
X133782000Y-97460000D03*
%TD*%
D13*
%TO.P,J3,1,Pin_1*%
%TO.N,/A0*%
X138862000Y-97460000D03*
D16*
%TO.P,J3,2,Pin_2*%
%TO.N,/A1*%
X141402000Y-97460000D03*
%TO.P,J3,3,Pin_3*%
%TO.N,/A2*%
X143942000Y-97460000D03*
%TO.P,J3,4,Pin_4*%
%TO.N,/A3*%
X146482000Y-97460000D03*
%TO.P,J3,5,Pin_5*%
%TO.N,/A4*%
X149022000Y-97460000D03*
%TO.P,J3,6,Pin_6*%
%TO.N,/A5*%
X151562000Y-97460000D03*
%TD*%
D13*
%TO.P,J2,1,Pin_1*%
%TO.N,/SCL*%
X106858000Y-49200000D03*
D16*
%TO.P,J2,2,Pin_2*%
%TO.N,/SDA*%
X109398000Y-49200000D03*
%TO.P,J2,3,Pin_3*%
%TO.N,/AREF*%
X111938000Y-49200000D03*
%TO.P,J2,4,Pin_4*%
%TO.N,GND*%
X114478000Y-49200000D03*
%TO.P,J2,5,Pin_5*%
%TO.N,/13*%
X117018000Y-49200000D03*
%TO.P,J2,6,Pin_6*%
%TO.N,/12*%
X119558000Y-49200000D03*
%TO.P,J2,7,Pin_7*%
%TO.N,/\u002A11*%
X122098000Y-49200000D03*
%TO.P,J2,8,Pin_8*%
%TO.N,/\u002A10*%
X124638000Y-49200000D03*
%TO.P,J2,9,Pin_9*%
%TO.N,/\u002A9*%
X127178000Y-49200000D03*
%TO.P,J2,10,Pin_10*%
%TO.N,/8*%
X129718000Y-49200000D03*
%TD*%
D13*
%TO.P,J4,1,Pin_1*%
%TO.N,/7*%
X133782000Y-49200000D03*
D16*
%TO.P,J4,2,Pin_2*%
%TO.N,/\u002A6*%
X136322000Y-49200000D03*
%TO.P,J4,3,Pin_3*%
%TO.N,/\u002A5*%
X138862000Y-49200000D03*
%TO.P,J4,4,Pin_4*%
%TO.N,/4*%
X141402000Y-49200000D03*
%TO.P,J4,5,Pin_5*%
%TO.N,/\u002A3*%
X143942000Y-49200000D03*
%TO.P,J4,6,Pin_6*%
%TO.N,/2*%
X146482000Y-49200000D03*
%TO.P,J4,7,Pin_7*%
%TO.N,/TX{slash}1*%
X149022000Y-49200000D03*
%TO.P,J4,8,Pin_8*%
%TO.N,/RX{slash}0*%
X151562000Y-49200000D03*
%TD*%
D17*
%TO.N,+5V*%
X164008000Y-86030000D02*
X164008000Y-91872000D01*
X129210000Y-94412000D02*
X126162000Y-97460000D01*
X164008000Y-91872000D02*
X161468000Y-94412000D01*
X161468000Y-94412000D02*
X129210000Y-94412000D01*
%TO.N,/4*%
X145212000Y-53010000D02*
X141402000Y-49200000D01*
X156515000Y-55550000D02*
X156515000Y-55232500D01*
X154292500Y-53010000D02*
X145212000Y-53010000D01*
X156515000Y-55232500D02*
X154292500Y-53010000D01*
%TO.N,/2*%
X160325000Y-51740000D02*
X149022000Y-51740000D01*
X164135000Y-55550000D02*
X160325000Y-51740000D01*
X149022000Y-51740000D02*
X146482000Y-49200000D01*
%TO.N,/\u002A5*%
X156388000Y-86030000D02*
X156388000Y-81308000D01*
X154610000Y-56312000D02*
X151943000Y-53645000D01*
X151943000Y-53645000D02*
X143307000Y-53645000D01*
X157000000Y-80696000D02*
X163500000Y-80696000D01*
X156388000Y-81308000D02*
X157000000Y-80696000D01*
X154610000Y-56312000D02*
X154610000Y-78306000D01*
X164008000Y-81204000D02*
X163500000Y-80696000D01*
X163575000Y-80660000D02*
X164135000Y-81220000D01*
X143307000Y-53645000D02*
X138862000Y-49200000D01*
X154610000Y-78306000D02*
X157000000Y-80696000D01*
%TO.N,/\u002A3*%
X160325000Y-55232500D02*
X157467500Y-52375000D01*
X147117000Y-52375000D02*
X143942000Y-49200000D01*
X157467500Y-52375000D02*
X147117000Y-52375000D01*
X160325000Y-55550000D02*
X160325000Y-55232500D01*
%TO.N,Net-(Green1-A)*%
X175184000Y-62916000D02*
X176454000Y-64186000D01*
X176454000Y-96444000D02*
X175184000Y-97714000D01*
X176454000Y-64186000D02*
X176454000Y-96444000D01*
%TO.N,Net-(J5-Pin_2)*%
X172898000Y-64186000D02*
X172898000Y-53156000D01*
X172898000Y-53156000D02*
X175076000Y-50978000D01*
X175184000Y-66472000D02*
X172898000Y-64186000D01*
X175184000Y-95174000D02*
X175184000Y-66472000D01*
%TO.N,Net-(J6-Pin_2)*%
X157765000Y-70770000D02*
X156515000Y-69520000D01*
X160198000Y-70770000D02*
X157765000Y-70770000D01*
X156515000Y-69520000D02*
X156515000Y-63170000D01*
%TO.N,Net-(J6-Pin_3)*%
X163500000Y-66345000D02*
X160325000Y-63170000D01*
X163500000Y-68230000D02*
X163500000Y-66345000D01*
%TO.N,Net-(J6-Pin_4)*%
X164155000Y-70770000D02*
X165024000Y-69901000D01*
X165024000Y-64059000D02*
X164135000Y-63170000D01*
X165024000Y-69901000D02*
X165024000Y-64059000D01*
%TO.N,Net-(J5-Pin_1)*%
X177724000Y-66472000D02*
X180010000Y-64186000D01*
X175184000Y-57328000D02*
X175184000Y-56960000D01*
X180010000Y-62154000D02*
X175184000Y-57328000D01*
X177724000Y-95174000D02*
X177724000Y-66472000D01*
X180010000Y-64186000D02*
X180010000Y-62154000D01*
%TD*%
%TA.AperFunction,Conductor*%
%TO.N,GND*%
G36*
X130776075Y-97267007D02*
G01*
X130742000Y-97394174D01*
X130742000Y-97525826D01*
X130776075Y-97652993D01*
X130808988Y-97710000D01*
X129135012Y-97710000D01*
X129167925Y-97652993D01*
X129202000Y-97525826D01*
X129202000Y-97394174D01*
X129167925Y-97267007D01*
X129135012Y-97210000D01*
X130808988Y-97210000D01*
X130776075Y-97267007D01*
G37*
%TD.AperFunction*%
%TA.AperFunction,Conductor*%
G36*
X149661853Y-41655882D02*
G01*
X149684310Y-41657649D01*
X149794402Y-41666313D01*
X149813612Y-41669356D01*
X149938147Y-41699254D01*
X149956639Y-41705263D01*
X150038953Y-41739358D01*
X150074963Y-41754274D01*
X150092300Y-41763108D01*
X150201494Y-41830022D01*
X150217225Y-41841452D01*
X150318326Y-41927799D01*
X150324487Y-41933432D01*
X150324996Y-41933930D01*
X150339380Y-41948313D01*
X150339762Y-41948372D01*
X150353627Y-41961934D01*
X150353646Y-41961969D01*
X150353711Y-41962015D01*
X155167949Y-46679817D01*
X155202045Y-46713230D01*
X155202839Y-46714016D01*
X155212829Y-46724006D01*
X155212831Y-46724007D01*
X155213456Y-46724425D01*
X155213477Y-46724433D01*
X155213479Y-46724435D01*
X155226553Y-46729695D01*
X155227567Y-46730109D01*
X155237085Y-46734053D01*
X155240343Y-46735403D01*
X155240578Y-46735500D01*
X155240580Y-46735501D01*
X155241319Y-46735647D01*
X155241339Y-46735646D01*
X155241342Y-46735648D01*
X155255282Y-46735506D01*
X155255372Y-46735506D01*
X155256625Y-46735500D01*
X166015469Y-46735500D01*
X166033907Y-46735500D01*
X166046061Y-46736097D01*
X166161777Y-46747494D01*
X166185612Y-46752234D01*
X166291037Y-46784215D01*
X166313476Y-46793510D01*
X166410629Y-46845439D01*
X166430839Y-46858943D01*
X166515988Y-46928823D01*
X166533176Y-46946011D01*
X166603056Y-47031160D01*
X166616561Y-47051372D01*
X166668486Y-47148517D01*
X166677786Y-47170968D01*
X166704625Y-47259445D01*
X166709763Y-47276381D01*
X166714505Y-47300221D01*
X166725903Y-47415937D01*
X166726500Y-47428092D01*
X166726500Y-49215018D01*
X166737994Y-49242767D01*
X166759233Y-49264006D01*
X166786982Y-49275500D01*
X166786987Y-49275500D01*
X166798959Y-49277882D01*
X166798369Y-49280844D01*
X166847206Y-49295185D01*
X166892961Y-49347989D01*
X166902905Y-49417147D01*
X166873880Y-49480703D01*
X166867848Y-49487181D01*
X166815541Y-49539487D01*
X166815535Y-49539495D01*
X166775982Y-49608004D01*
X166775979Y-49608009D01*
X166762326Y-49658962D01*
X166755500Y-49684438D01*
X166755500Y-49763562D01*
X166769152Y-49814513D01*
X166775979Y-49839990D01*
X166775982Y-49839995D01*
X166815535Y-49908504D01*
X166815539Y-49908509D01*
X166815540Y-49908511D01*
X166871489Y-49964460D01*
X166871491Y-49964461D01*
X166871495Y-49964464D01*
X166940004Y-50004017D01*
X166940011Y-50004021D01*
X167016438Y-50024500D01*
X167016440Y-50024500D01*
X167059000Y-50024500D01*
X167067685Y-50027050D01*
X167076647Y-50025762D01*
X167100687Y-50036740D01*
X167126039Y-50044185D01*
X167131966Y-50051025D01*
X167140203Y-50054787D01*
X167154492Y-50077021D01*
X167171794Y-50096989D01*
X167174081Y-50107503D01*
X167177977Y-50113565D01*
X167183000Y-50148500D01*
X167183000Y-50299500D01*
X167163315Y-50366539D01*
X167110511Y-50412294D01*
X167059000Y-50423500D01*
X167016438Y-50423500D01*
X166978224Y-50433739D01*
X166940009Y-50443979D01*
X166940004Y-50443982D01*
X166871495Y-50483535D01*
X166871487Y-50483541D01*
X166815541Y-50539487D01*
X166815535Y-50539495D01*
X166775982Y-50608004D01*
X166775979Y-50608009D01*
X166767631Y-50639166D01*
X166755500Y-50684438D01*
X166755500Y-50763562D01*
X166757274Y-50770181D01*
X166775979Y-50839990D01*
X166775982Y-50839995D01*
X166815535Y-50908504D01*
X166815539Y-50908509D01*
X166815540Y-50908511D01*
X166871489Y-50964460D01*
X166871491Y-50964461D01*
X166871495Y-50964464D01*
X166940004Y-51004017D01*
X166940011Y-51004021D01*
X167016438Y-51024500D01*
X167016440Y-51024500D01*
X167059000Y-51024500D01*
X167067685Y-51027050D01*
X167076647Y-51025762D01*
X167100687Y-51036740D01*
X167126039Y-51044185D01*
X167131966Y-51051025D01*
X167140203Y-51054787D01*
X167154492Y-51077021D01*
X167171794Y-51096989D01*
X167174081Y-51107503D01*
X167177977Y-51113565D01*
X167183000Y-51148500D01*
X167183000Y-51299500D01*
X167163315Y-51366539D01*
X167110511Y-51412294D01*
X167059000Y-51423500D01*
X167016438Y-51423500D01*
X166978224Y-51433739D01*
X166940009Y-51443979D01*
X166940004Y-51443982D01*
X166871495Y-51483535D01*
X166871487Y-51483541D01*
X166815541Y-51539487D01*
X166815535Y-51539495D01*
X166775982Y-51608004D01*
X166775979Y-51608009D01*
X166762326Y-51658962D01*
X166755500Y-51684438D01*
X166755500Y-51763562D01*
X166769152Y-51814513D01*
X166775979Y-51839990D01*
X166775982Y-51839995D01*
X166815535Y-51908504D01*
X166815539Y-51908509D01*
X166815540Y-51908511D01*
X166871489Y-51964460D01*
X166871491Y-51964461D01*
X166871495Y-51964464D01*
X166940004Y-52004017D01*
X166940011Y-52004021D01*
X167016438Y-52024500D01*
X167016440Y-52024500D01*
X167059000Y-52024500D01*
X167067685Y-52027050D01*
X167076647Y-52025762D01*
X167100687Y-52036740D01*
X167126039Y-52044185D01*
X167131966Y-52051025D01*
X167140203Y-52054787D01*
X167154492Y-52077021D01*
X167171794Y-52096989D01*
X167174081Y-52107503D01*
X167177977Y-52113565D01*
X167183000Y-52148500D01*
X167183000Y-52299500D01*
X167163315Y-52366539D01*
X167110511Y-52412294D01*
X167059000Y-52423500D01*
X167016438Y-52423500D01*
X166978224Y-52433739D01*
X166940009Y-52443979D01*
X166940004Y-52443982D01*
X166871495Y-52483535D01*
X166871487Y-52483541D01*
X166815541Y-52539487D01*
X166815535Y-52539495D01*
X166775982Y-52608004D01*
X166775979Y-52608009D01*
X166762326Y-52658962D01*
X166755500Y-52684438D01*
X166755500Y-52763562D01*
X166765215Y-52799819D01*
X166775979Y-52839990D01*
X166775982Y-52839995D01*
X166815535Y-52908504D01*
X166815539Y-52908509D01*
X166815540Y-52908511D01*
X166871489Y-52964460D01*
X166871491Y-52964461D01*
X166871495Y-52964464D01*
X166890058Y-52975181D01*
X166940011Y-53004021D01*
X167016438Y-53024500D01*
X167016440Y-53024500D01*
X167059000Y-53024500D01*
X167067685Y-53027050D01*
X167076647Y-53025762D01*
X167100687Y-53036740D01*
X167126039Y-53044185D01*
X167131966Y-53051025D01*
X167140203Y-53054787D01*
X167154492Y-53077021D01*
X167171794Y-53096989D01*
X167174081Y-53107503D01*
X167177977Y-53113565D01*
X167183000Y-53148500D01*
X167183000Y-53299500D01*
X167163315Y-53366539D01*
X167110511Y-53412294D01*
X167059000Y-53423500D01*
X167016438Y-53423500D01*
X166978224Y-53433739D01*
X166940009Y-53443979D01*
X166940004Y-53443982D01*
X166871495Y-53483535D01*
X166871487Y-53483541D01*
X166815541Y-53539487D01*
X166815535Y-53539495D01*
X166775982Y-53608004D01*
X166775979Y-53608009D01*
X166766385Y-53643816D01*
X166755500Y-53684438D01*
X166755500Y-53763562D01*
X166763618Y-53793858D01*
X166775979Y-53839990D01*
X166775982Y-53839995D01*
X166815535Y-53908504D01*
X166815539Y-53908509D01*
X166815540Y-53908511D01*
X166871489Y-53964460D01*
X166871491Y-53964461D01*
X166871495Y-53964464D01*
X166886475Y-53973113D01*
X166934691Y-54023679D01*
X166947915Y-54092286D01*
X166921947Y-54157151D01*
X166865033Y-54197680D01*
X166824476Y-54204500D01*
X166786982Y-54204500D01*
X166759231Y-54215995D01*
X166737995Y-54237231D01*
X166737994Y-54237232D01*
X166737994Y-54237233D01*
X166726500Y-54264982D01*
X166726500Y-91887018D01*
X166737994Y-91914767D01*
X166759233Y-91936006D01*
X166786982Y-91947500D01*
X166786984Y-91947500D01*
X166798171Y-91947500D01*
X166865210Y-91967185D01*
X166910965Y-92019989D01*
X166920909Y-92089147D01*
X166891884Y-92152703D01*
X166873663Y-92169872D01*
X166871487Y-92171541D01*
X166815541Y-92227487D01*
X166815535Y-92227495D01*
X166775982Y-92296004D01*
X166775979Y-92296009D01*
X166762326Y-92346962D01*
X166755500Y-92372438D01*
X166755500Y-92451562D01*
X166769152Y-92502513D01*
X166775979Y-92527990D01*
X166775982Y-92527995D01*
X166815535Y-92596504D01*
X166815539Y-92596509D01*
X166815540Y-92596511D01*
X166871489Y-92652460D01*
X166871491Y-92652461D01*
X166871495Y-92652464D01*
X166940004Y-92692017D01*
X166940011Y-92692021D01*
X167016438Y-92712500D01*
X167016440Y-92712500D01*
X167059000Y-92712500D01*
X167067685Y-92715050D01*
X167076647Y-92713762D01*
X167100687Y-92724740D01*
X167126039Y-92732185D01*
X167131966Y-92739025D01*
X167140203Y-92742787D01*
X167154492Y-92765021D01*
X167171794Y-92784989D01*
X167174081Y-92795503D01*
X167177977Y-92801565D01*
X167183000Y-92836500D01*
X167183000Y-92987500D01*
X167163315Y-93054539D01*
X167110511Y-93100294D01*
X167059000Y-93111500D01*
X167016438Y-93111500D01*
X166978224Y-93121739D01*
X166940009Y-93131979D01*
X166940004Y-93131982D01*
X166871495Y-93171535D01*
X166871487Y-93171541D01*
X166815541Y-93227487D01*
X166815535Y-93227495D01*
X166775982Y-93296004D01*
X166775979Y-93296009D01*
X166762326Y-93346962D01*
X166755500Y-93372438D01*
X166755500Y-93451562D01*
X166769152Y-93502513D01*
X166775979Y-93527990D01*
X166775982Y-93527995D01*
X166815535Y-93596504D01*
X166815539Y-93596509D01*
X166815540Y-93596511D01*
X166871489Y-93652460D01*
X166871491Y-93652461D01*
X166871495Y-93652464D01*
X166940004Y-93692017D01*
X166940011Y-93692021D01*
X167016438Y-93712500D01*
X167016440Y-93712500D01*
X167059000Y-93712500D01*
X167067685Y-93715050D01*
X167076647Y-93713762D01*
X167100687Y-93724740D01*
X167126039Y-93732185D01*
X167131966Y-93739025D01*
X167140203Y-93742787D01*
X167154492Y-93765021D01*
X167171794Y-93784989D01*
X167174081Y-93795503D01*
X167177977Y-93801565D01*
X167183000Y-93836500D01*
X167183000Y-93987500D01*
X167163315Y-94054539D01*
X167110511Y-94100294D01*
X167059000Y-94111500D01*
X167016438Y-94111500D01*
X166978224Y-94121739D01*
X166940009Y-94131979D01*
X166940004Y-94131982D01*
X166871495Y-94171535D01*
X166871487Y-94171541D01*
X166815541Y-94227487D01*
X166815535Y-94227495D01*
X166775982Y-94296004D01*
X166775979Y-94296009D01*
X166762326Y-94346962D01*
X166755500Y-94372438D01*
X166755500Y-94451562D01*
X166769152Y-94502513D01*
X166775979Y-94527990D01*
X166775982Y-94527995D01*
X166815535Y-94596504D01*
X166815539Y-94596509D01*
X166815540Y-94596511D01*
X166871489Y-94652460D01*
X166871491Y-94652461D01*
X166871495Y-94652464D01*
X166940004Y-94692017D01*
X166940011Y-94692021D01*
X167016438Y-94712500D01*
X167016440Y-94712500D01*
X167059000Y-94712500D01*
X167067685Y-94715050D01*
X167076647Y-94713762D01*
X167100687Y-94724740D01*
X167126039Y-94732185D01*
X167131966Y-94739025D01*
X167140203Y-94742787D01*
X167154492Y-94765021D01*
X167171794Y-94784989D01*
X167174081Y-94795503D01*
X167177977Y-94801565D01*
X167183000Y-94836500D01*
X167183000Y-94987500D01*
X167163315Y-95054539D01*
X167110511Y-95100294D01*
X167059000Y-95111500D01*
X167016438Y-95111500D01*
X166978224Y-95121739D01*
X166940009Y-95131979D01*
X166940004Y-95131982D01*
X166871495Y-95171535D01*
X166871487Y-95171541D01*
X166815541Y-95227487D01*
X166815535Y-95227495D01*
X166775982Y-95296004D01*
X166775979Y-95296009D01*
X166762326Y-95346962D01*
X166755500Y-95372438D01*
X166755500Y-95451562D01*
X166769152Y-95502513D01*
X166775979Y-95527990D01*
X166775982Y-95527995D01*
X166815535Y-95596504D01*
X166815539Y-95596509D01*
X166815540Y-95596511D01*
X166871489Y-95652460D01*
X166871491Y-95652461D01*
X166871495Y-95652464D01*
X166940004Y-95692017D01*
X166940011Y-95692021D01*
X167016438Y-95712500D01*
X167016440Y-95712500D01*
X167059000Y-95712500D01*
X167067685Y-95715050D01*
X167076647Y-95713762D01*
X167100687Y-95724740D01*
X167126039Y-95732185D01*
X167131966Y-95739025D01*
X167140203Y-95742787D01*
X167154492Y-95765021D01*
X167171794Y-95784989D01*
X167174081Y-95795503D01*
X167177977Y-95801565D01*
X167183000Y-95836500D01*
X167183000Y-95987500D01*
X167163315Y-96054539D01*
X167110511Y-96100294D01*
X167059000Y-96111500D01*
X167016438Y-96111500D01*
X166978224Y-96121739D01*
X166940009Y-96131979D01*
X166940004Y-96131982D01*
X166871495Y-96171535D01*
X166871487Y-96171541D01*
X166815541Y-96227487D01*
X166815535Y-96227495D01*
X166775982Y-96296004D01*
X166775979Y-96296009D01*
X166762326Y-96346962D01*
X166755500Y-96372438D01*
X166755500Y-96451562D01*
X166764359Y-96484624D01*
X166775979Y-96527990D01*
X166775982Y-96527995D01*
X166815535Y-96596504D01*
X166815539Y-96596509D01*
X166815540Y-96596511D01*
X166871489Y-96652460D01*
X166871491Y-96652461D01*
X166873663Y-96654128D01*
X166875031Y-96656002D01*
X166877236Y-96658207D01*
X166876892Y-96658550D01*
X166914862Y-96710558D01*
X166919014Y-96780304D01*
X166884798Y-96841223D01*
X166823079Y-96873973D01*
X166798171Y-96876500D01*
X166756165Y-96876500D01*
X166728414Y-96887995D01*
X166707178Y-96909231D01*
X166695683Y-96936982D01*
X166695683Y-99231908D01*
X166695086Y-99244061D01*
X166695086Y-99244063D01*
X166683688Y-99359777D01*
X166678946Y-99383617D01*
X166649014Y-99482290D01*
X166646973Y-99489018D01*
X166637670Y-99511477D01*
X166585745Y-99608621D01*
X166572240Y-99628833D01*
X166502358Y-99713983D01*
X166485168Y-99731172D01*
X166400022Y-99801047D01*
X166379811Y-99814551D01*
X166282665Y-99866475D01*
X166260206Y-99875777D01*
X166154802Y-99907749D01*
X166130961Y-99912491D01*
X166015258Y-99923885D01*
X166003106Y-99924482D01*
X100768090Y-99924498D01*
X100755937Y-99923901D01*
X100640223Y-99912505D01*
X100616381Y-99907763D01*
X100599445Y-99902625D01*
X100510968Y-99875786D01*
X100488517Y-99866486D01*
X100488496Y-99866475D01*
X100391372Y-99814561D01*
X100371160Y-99801056D01*
X100286011Y-99731176D01*
X100268823Y-99713988D01*
X100198943Y-99628839D01*
X100185438Y-99608627D01*
X100185435Y-99608621D01*
X100133510Y-99511476D01*
X100124215Y-99489037D01*
X100092234Y-99383612D01*
X100087494Y-99359777D01*
X100076097Y-99244061D01*
X100075500Y-99231907D01*
X100075500Y-96561345D01*
X114643500Y-96561345D01*
X114643500Y-98358654D01*
X114650011Y-98419202D01*
X114650011Y-98419204D01*
X114701111Y-98556204D01*
X114788739Y-98673261D01*
X114905796Y-98760889D01*
X115042799Y-98811989D01*
X115070050Y-98814918D01*
X115103345Y-98818499D01*
X115103362Y-98818500D01*
X116900638Y-98818500D01*
X116900654Y-98818499D01*
X116927692Y-98815591D01*
X116961201Y-98811989D01*
X117098204Y-98760889D01*
X117215261Y-98673261D01*
X117302889Y-98556204D01*
X117347957Y-98435371D01*
X117389827Y-98379442D01*
X117455291Y-98355025D01*
X117523564Y-98369877D01*
X117551818Y-98391028D01*
X117656996Y-98496206D01*
X117829991Y-98621894D01*
X117923438Y-98669507D01*
X118020516Y-98718972D01*
X118020519Y-98718973D01*
X118122200Y-98752010D01*
X118223884Y-98785049D01*
X118435084Y-98818500D01*
X118435085Y-98818500D01*
X118648915Y-98818500D01*
X118648916Y-98818500D01*
X118860116Y-98785049D01*
X119063483Y-98718972D01*
X119254009Y-98621894D01*
X119427004Y-98496206D01*
X119578206Y-98345004D01*
X119703894Y-98172009D01*
X119703896Y-98172004D01*
X119706270Y-98168132D01*
X119758080Y-98121254D01*
X119827009Y-98109829D01*
X119891173Y-98137483D01*
X119917730Y-98168132D01*
X119920103Y-98172005D01*
X119920105Y-98172008D01*
X119920106Y-98172009D01*
X120045794Y-98345004D01*
X120196996Y-98496206D01*
X120369991Y-98621894D01*
X120463438Y-98669507D01*
X120560516Y-98718972D01*
X120560519Y-98718973D01*
X120662200Y-98752010D01*
X120763884Y-98785049D01*
X120975084Y-98818500D01*
X120975085Y-98818500D01*
X121188915Y-98818500D01*
X121188916Y-98818500D01*
X121400116Y-98785049D01*
X121603483Y-98718972D01*
X121794009Y-98621894D01*
X121967004Y-98496206D01*
X122118206Y-98345004D01*
X122243894Y-98172009D01*
X122243896Y-98172004D01*
X122246270Y-98168132D01*
X122298080Y-98121254D01*
X122367009Y-98109829D01*
X122431173Y-98137483D01*
X122457730Y-98168132D01*
X122460103Y-98172005D01*
X122460105Y-98172008D01*
X122460106Y-98172009D01*
X122585794Y-98345004D01*
X122736996Y-98496206D01*
X122909991Y-98621894D01*
X123003438Y-98669507D01*
X123100516Y-98718972D01*
X123100519Y-98718973D01*
X123202200Y-98752010D01*
X123303884Y-98785049D01*
X123515084Y-98818500D01*
X123515085Y-98818500D01*
X123728915Y-98818500D01*
X123728916Y-98818500D01*
X123940116Y-98785049D01*
X124143483Y-98718972D01*
X124334009Y-98621894D01*
X124507004Y-98496206D01*
X124658206Y-98345004D01*
X124783894Y-98172009D01*
X124783896Y-98172004D01*
X124786270Y-98168132D01*
X124838080Y-98121254D01*
X124907009Y-98109829D01*
X124971173Y-98137483D01*
X124997730Y-98168132D01*
X125000103Y-98172005D01*
X125000105Y-98172008D01*
X125000106Y-98172009D01*
X125125794Y-98345004D01*
X125276996Y-98496206D01*
X125449991Y-98621894D01*
X125543438Y-98669507D01*
X125640516Y-98718972D01*
X125640519Y-98718973D01*
X125742200Y-98752010D01*
X125843884Y-98785049D01*
X126055084Y-98818500D01*
X126055085Y-98818500D01*
X126268915Y-98818500D01*
X126268916Y-98818500D01*
X126480116Y-98785049D01*
X126683483Y-98718972D01*
X126874009Y-98621894D01*
X127047004Y-98496206D01*
X127198206Y-98345004D01*
X127323894Y-98172009D01*
X127326283Y-98167319D01*
X127374254Y-98116522D01*
X127442074Y-98099724D01*
X127508210Y-98122258D01*
X127544201Y-98163788D01*
X127544832Y-98163402D01*
X127547164Y-98167207D01*
X127547251Y-98167308D01*
X127547376Y-98167554D01*
X127672272Y-98339459D01*
X127672276Y-98339464D01*
X127822535Y-98489723D01*
X127822540Y-98489727D01*
X127994442Y-98614620D01*
X128183782Y-98711095D01*
X128385871Y-98776757D01*
X128452000Y-98787231D01*
X128452000Y-97893012D01*
X128509007Y-97925925D01*
X128636174Y-97960000D01*
X128767826Y-97960000D01*
X128894993Y-97925925D01*
X128952000Y-97893012D01*
X128952000Y-98787230D01*
X129018126Y-98776757D01*
X129018129Y-98776757D01*
X129220217Y-98711095D01*
X129409557Y-98614620D01*
X129581459Y-98489727D01*
X129581464Y-98489723D01*
X129731723Y-98339464D01*
X129731727Y-98339459D01*
X129856620Y-98167558D01*
X129861514Y-98157954D01*
X129909488Y-98107157D01*
X129977308Y-98090361D01*
X130043444Y-98112897D01*
X130082486Y-98157954D01*
X130087379Y-98167558D01*
X130212272Y-98339459D01*
X130212276Y-98339464D01*
X130362535Y-98489723D01*
X130362540Y-98489727D01*
X130534442Y-98614620D01*
X130723782Y-98711095D01*
X130925871Y-98776757D01*
X130992000Y-98787231D01*
X130992000Y-97893012D01*
X131049007Y-97925925D01*
X131176174Y-97960000D01*
X131307826Y-97960000D01*
X131434993Y-97925925D01*
X131492000Y-97893012D01*
X131492000Y-98787230D01*
X131558126Y-98776757D01*
X131558129Y-98776757D01*
X131760217Y-98711095D01*
X131949557Y-98614620D01*
X132121459Y-98489727D01*
X132121464Y-98489723D01*
X132271723Y-98339464D01*
X132271727Y-98339459D01*
X132396619Y-98167560D01*
X132396738Y-98167327D01*
X132396808Y-98167252D01*
X132399168Y-98163402D01*
X132399976Y-98163897D01*
X132444707Y-98116526D01*
X132512526Y-98099723D01*
X132578663Y-98122254D01*
X132617712Y-98167311D01*
X132620105Y-98172008D01*
X132662002Y-98229674D01*
X132745794Y-98345004D01*
X132896996Y-98496206D01*
X133069991Y-98621894D01*
X133163438Y-98669507D01*
X133260516Y-98718972D01*
X133260519Y-98718973D01*
X133362200Y-98752010D01*
X133463884Y-98785049D01*
X133675084Y-98818500D01*
X133675085Y-98818500D01*
X133888915Y-98818500D01*
X133888916Y-98818500D01*
X134100116Y-98785049D01*
X134303483Y-98718972D01*
X134494009Y-98621894D01*
X134667004Y-98496206D01*
X134818206Y-98345004D01*
X134943894Y-98172009D01*
X135040972Y-97981483D01*
X135107049Y-97778116D01*
X135140500Y-97566916D01*
X135140500Y-97353084D01*
X135107049Y-97141884D01*
X135066149Y-97016006D01*
X135040973Y-96938519D01*
X135040972Y-96938516D01*
X134985495Y-96829638D01*
X134943894Y-96747991D01*
X134916697Y-96710558D01*
X134858844Y-96630929D01*
X134858842Y-96630927D01*
X134818206Y-96574996D01*
X134804555Y-96561345D01*
X137503500Y-96561345D01*
X137503500Y-98358654D01*
X137510011Y-98419202D01*
X137510011Y-98419204D01*
X137561111Y-98556204D01*
X137648739Y-98673261D01*
X137765796Y-98760889D01*
X137902799Y-98811989D01*
X137930050Y-98814918D01*
X137963345Y-98818499D01*
X137963362Y-98818500D01*
X139760638Y-98818500D01*
X139760654Y-98818499D01*
X139787692Y-98815591D01*
X139821201Y-98811989D01*
X139958204Y-98760889D01*
X140075261Y-98673261D01*
X140162889Y-98556204D01*
X140207957Y-98435371D01*
X140249827Y-98379442D01*
X140315291Y-98355025D01*
X140383564Y-98369877D01*
X140411818Y-98391028D01*
X140516996Y-98496206D01*
X140689991Y-98621894D01*
X140783438Y-98669507D01*
X140880516Y-98718972D01*
X140880519Y-98718973D01*
X140982200Y-98752010D01*
X141083884Y-98785049D01*
X141295084Y-98818500D01*
X141295085Y-98818500D01*
X141508915Y-98818500D01*
X141508916Y-98818500D01*
X141720116Y-98785049D01*
X141923483Y-98718972D01*
X142114009Y-98621894D01*
X142287004Y-98496206D01*
X142438206Y-98345004D01*
X142563894Y-98172009D01*
X142563896Y-98172004D01*
X142566270Y-98168132D01*
X142618080Y-98121254D01*
X142687009Y-98109829D01*
X142751173Y-98137483D01*
X142777730Y-98168132D01*
X142780103Y-98172005D01*
X142780105Y-98172008D01*
X142780106Y-98172009D01*
X142905794Y-98345004D01*
X143056996Y-98496206D01*
X143229991Y-98621894D01*
X143323438Y-98669507D01*
X143420516Y-98718972D01*
X143420519Y-98718973D01*
X143522200Y-98752010D01*
X143623884Y-98785049D01*
X143835084Y-98818500D01*
X143835085Y-98818500D01*
X144048915Y-98818500D01*
X144048916Y-98818500D01*
X144260116Y-98785049D01*
X144463483Y-98718972D01*
X144654009Y-98621894D01*
X144827004Y-98496206D01*
X144978206Y-98345004D01*
X145103894Y-98172009D01*
X145103896Y-98172004D01*
X145106270Y-98168132D01*
X145158080Y-98121254D01*
X145227009Y-98109829D01*
X145291173Y-98137483D01*
X145317730Y-98168132D01*
X145320103Y-98172005D01*
X145320105Y-98172008D01*
X145320106Y-98172009D01*
X145445794Y-98345004D01*
X145596996Y-98496206D01*
X145769991Y-98621894D01*
X145863438Y-98669507D01*
X145960516Y-98718972D01*
X145960519Y-98718973D01*
X146062200Y-98752010D01*
X146163884Y-98785049D01*
X146375084Y-98818500D01*
X146375085Y-98818500D01*
X146588915Y-98818500D01*
X146588916Y-98818500D01*
X146800116Y-98785049D01*
X147003483Y-98718972D01*
X147194009Y-98621894D01*
X147367004Y-98496206D01*
X147518206Y-98345004D01*
X147643894Y-98172009D01*
X147643896Y-98172004D01*
X147646270Y-98168132D01*
X147698080Y-98121254D01*
X147767009Y-98109829D01*
X147831173Y-98137483D01*
X147857730Y-98168132D01*
X147860103Y-98172005D01*
X147860105Y-98172008D01*
X147860106Y-98172009D01*
X147985794Y-98345004D01*
X148136996Y-98496206D01*
X148309991Y-98621894D01*
X148403438Y-98669507D01*
X148500516Y-98718972D01*
X148500519Y-98718973D01*
X148602200Y-98752010D01*
X148703884Y-98785049D01*
X148915084Y-98818500D01*
X148915085Y-98818500D01*
X149128915Y-98818500D01*
X149128916Y-98818500D01*
X149340116Y-98785049D01*
X149543483Y-98718972D01*
X149734009Y-98621894D01*
X149907004Y-98496206D01*
X150058206Y-98345004D01*
X150183894Y-98172009D01*
X150183896Y-98172004D01*
X150186270Y-98168132D01*
X150238080Y-98121254D01*
X150307009Y-98109829D01*
X150371173Y-98137483D01*
X150397730Y-98168132D01*
X150400103Y-98172005D01*
X150400105Y-98172008D01*
X150400106Y-98172009D01*
X150525794Y-98345004D01*
X150676996Y-98496206D01*
X150849991Y-98621894D01*
X150943438Y-98669507D01*
X151040516Y-98718972D01*
X151040519Y-98718973D01*
X151142200Y-98752010D01*
X151243884Y-98785049D01*
X151455084Y-98818500D01*
X151455085Y-98818500D01*
X151668915Y-98818500D01*
X151668916Y-98818500D01*
X151880116Y-98785049D01*
X152083483Y-98718972D01*
X152274009Y-98621894D01*
X152447004Y-98496206D01*
X152598206Y-98345004D01*
X152723894Y-98172009D01*
X152820972Y-97981483D01*
X152887049Y-97778116D01*
X152920500Y-97566916D01*
X152920500Y-97353084D01*
X152887049Y-97141884D01*
X152846149Y-97016006D01*
X152820973Y-96938519D01*
X152820972Y-96938516D01*
X152765495Y-96829638D01*
X152723894Y-96747991D01*
X152598206Y-96574996D01*
X152447004Y-96423794D01*
X152274009Y-96298106D01*
X152269884Y-96296004D01*
X152083483Y-96201027D01*
X152083480Y-96201026D01*
X151880117Y-96134951D01*
X151712777Y-96108447D01*
X151668916Y-96101500D01*
X151455084Y-96101500D01*
X151411223Y-96108447D01*
X151243882Y-96134951D01*
X151040519Y-96201026D01*
X151040516Y-96201027D01*
X150849990Y-96298106D01*
X150676993Y-96423796D01*
X150525796Y-96574993D01*
X150400105Y-96747991D01*
X150397727Y-96751873D01*
X150345914Y-96798748D01*
X150276984Y-96810169D01*
X150212822Y-96782512D01*
X150186273Y-96751873D01*
X150183894Y-96747991D01*
X150117060Y-96656002D01*
X150058206Y-96574996D01*
X149907004Y-96423794D01*
X149734009Y-96298106D01*
X149729884Y-96296004D01*
X149543483Y-96201027D01*
X149543480Y-96201026D01*
X149340117Y-96134951D01*
X149172777Y-96108447D01*
X149128916Y-96101500D01*
X148915084Y-96101500D01*
X148871223Y-96108447D01*
X148703882Y-96134951D01*
X148500519Y-96201026D01*
X148500516Y-96201027D01*
X148309990Y-96298106D01*
X148136993Y-96423796D01*
X147985796Y-96574993D01*
X147860105Y-96747991D01*
X147857727Y-96751873D01*
X147805914Y-96798748D01*
X147736984Y-96810169D01*
X147672822Y-96782512D01*
X147646273Y-96751873D01*
X147643894Y-96747991D01*
X147577060Y-96656002D01*
X147518206Y-96574996D01*
X147367004Y-96423794D01*
X147194009Y-96298106D01*
X147189884Y-96296004D01*
X147003483Y-96201027D01*
X147003480Y-96201026D01*
X146800117Y-96134951D01*
X146632777Y-96108447D01*
X146588916Y-96101500D01*
X146375084Y-96101500D01*
X146331223Y-96108447D01*
X146163882Y-96134951D01*
X145960519Y-96201026D01*
X145960516Y-96201027D01*
X145769990Y-96298106D01*
X145596993Y-96423796D01*
X145445796Y-96574993D01*
X145320105Y-96747991D01*
X145317727Y-96751873D01*
X145265914Y-96798748D01*
X145196984Y-96810169D01*
X145132822Y-96782512D01*
X145106273Y-96751873D01*
X145103894Y-96747991D01*
X145037060Y-96656002D01*
X144978206Y-96574996D01*
X144827004Y-96423794D01*
X144654009Y-96298106D01*
X144649884Y-96296004D01*
X144463483Y-96201027D01*
X144463480Y-96201026D01*
X144260117Y-96134951D01*
X144092777Y-96108447D01*
X144048916Y-96101500D01*
X143835084Y-96101500D01*
X143791223Y-96108447D01*
X143623882Y-96134951D01*
X143420519Y-96201026D01*
X143420516Y-96201027D01*
X143229990Y-96298106D01*
X143056993Y-96423796D01*
X142905796Y-96574993D01*
X142780105Y-96747991D01*
X142777727Y-96751873D01*
X142725914Y-96798748D01*
X142656984Y-96810169D01*
X142592822Y-96782512D01*
X142566273Y-96751873D01*
X142563894Y-96747991D01*
X142497060Y-96656002D01*
X142438206Y-96574996D01*
X142287004Y-96423794D01*
X142114009Y-96298106D01*
X142109884Y-96296004D01*
X141923483Y-96201027D01*
X141923480Y-96201026D01*
X141720117Y-96134951D01*
X141552777Y-96108447D01*
X141508916Y-96101500D01*
X141295084Y-96101500D01*
X141251223Y-96108447D01*
X141083882Y-96134951D01*
X140880519Y-96201026D01*
X140880516Y-96201027D01*
X140689990Y-96298106D01*
X140516997Y-96423793D01*
X140411818Y-96528972D01*
X140350495Y-96562456D01*
X140280803Y-96557472D01*
X140224870Y-96515600D01*
X140207958Y-96484629D01*
X140162889Y-96363796D01*
X140075261Y-96246739D01*
X139958204Y-96159111D01*
X139821203Y-96108011D01*
X139760654Y-96101500D01*
X139760638Y-96101500D01*
X137963362Y-96101500D01*
X137963345Y-96101500D01*
X137902797Y-96108011D01*
X137902795Y-96108011D01*
X137765795Y-96159111D01*
X137648739Y-96246739D01*
X137561111Y-96363795D01*
X137510011Y-96500795D01*
X137510011Y-96500797D01*
X137503500Y-96561345D01*
X134804555Y-96561345D01*
X134667004Y-96423794D01*
X134494009Y-96298106D01*
X134489884Y-96296004D01*
X134303483Y-96201027D01*
X134303480Y-96201026D01*
X134100117Y-96134951D01*
X133932777Y-96108447D01*
X133888916Y-96101500D01*
X133675084Y-96101500D01*
X133631223Y-96108447D01*
X133463882Y-96134951D01*
X133260519Y-96201026D01*
X133260516Y-96201027D01*
X133069990Y-96298106D01*
X132896993Y-96423796D01*
X132745796Y-96574993D01*
X132620103Y-96747994D01*
X132617709Y-96752693D01*
X132569731Y-96803485D01*
X132501908Y-96820275D01*
X132435775Y-96797732D01*
X132399800Y-96756210D01*
X132399168Y-96756598D01*
X132396829Y-96752781D01*
X132396743Y-96752682D01*
X132396620Y-96752441D01*
X132271727Y-96580540D01*
X132271723Y-96580535D01*
X132121464Y-96430276D01*
X132121459Y-96430272D01*
X131949557Y-96305379D01*
X131760215Y-96208903D01*
X131558124Y-96143241D01*
X131492000Y-96132768D01*
X131492000Y-97026988D01*
X131434993Y-96994075D01*
X131307826Y-96960000D01*
X131176174Y-96960000D01*
X131049007Y-96994075D01*
X130992000Y-97026988D01*
X130992000Y-96132768D01*
X130991999Y-96132768D01*
X130925875Y-96143241D01*
X130723784Y-96208903D01*
X130534442Y-96305379D01*
X130362540Y-96430272D01*
X130362535Y-96430276D01*
X130212276Y-96580535D01*
X130212272Y-96580540D01*
X130087377Y-96752444D01*
X130082484Y-96762048D01*
X130034509Y-96812844D01*
X129966688Y-96829638D01*
X129900553Y-96807100D01*
X129861516Y-96762048D01*
X129856622Y-96752444D01*
X129731727Y-96580540D01*
X129731723Y-96580535D01*
X129581464Y-96430276D01*
X129581459Y-96430272D01*
X129409557Y-96305379D01*
X129220215Y-96208903D01*
X129018124Y-96143241D01*
X128952000Y-96132768D01*
X128952000Y-97026988D01*
X128894993Y-96994075D01*
X128767826Y-96960000D01*
X128636174Y-96960000D01*
X128509007Y-96994075D01*
X128452000Y-97026988D01*
X128452000Y-96117264D01*
X128460644Y-96087823D01*
X128467168Y-96057837D01*
X128470922Y-96052821D01*
X128471685Y-96050225D01*
X128488312Y-96029590D01*
X129436085Y-95081819D01*
X129497408Y-95048334D01*
X129523766Y-95045500D01*
X161530395Y-95045500D01*
X161530396Y-95045499D01*
X161652785Y-95021155D01*
X161768075Y-94973400D01*
X161871833Y-94904071D01*
X164500071Y-92275833D01*
X164569400Y-92172075D01*
X164577424Y-92152703D01*
X164594491Y-92111501D01*
X164594491Y-92111500D01*
X164603750Y-92089147D01*
X164617155Y-92056785D01*
X164641500Y-91934394D01*
X164641500Y-87250310D01*
X164661185Y-87183271D01*
X164692615Y-87149991D01*
X164693797Y-87149131D01*
X164693803Y-87149129D01*
X164860430Y-87028068D01*
X165006068Y-86882430D01*
X165127129Y-86715803D01*
X165220634Y-86532290D01*
X165284280Y-86336408D01*
X165316500Y-86132981D01*
X165316500Y-85927019D01*
X165284280Y-85723592D01*
X165220634Y-85527710D01*
X165220632Y-85527707D01*
X165220632Y-85527705D01*
X165186709Y-85461128D01*
X165127129Y-85344197D01*
X165111661Y-85322908D01*
X165006073Y-85177576D01*
X165006069Y-85177571D01*
X164860428Y-85031930D01*
X164860423Y-85031926D01*
X164693806Y-84910873D01*
X164693805Y-84910872D01*
X164693803Y-84910871D01*
X164583517Y-84854677D01*
X164510294Y-84817367D01*
X164314408Y-84753719D01*
X164138794Y-84725905D01*
X164110981Y-84721500D01*
X163905019Y-84721500D01*
X163880550Y-84725375D01*
X163701591Y-84753719D01*
X163505705Y-84817367D01*
X163322193Y-84910873D01*
X163155576Y-85031926D01*
X163155571Y-85031930D01*
X163009930Y-85177571D01*
X163009926Y-85177576D01*
X162888873Y-85344193D01*
X162795367Y-85527705D01*
X162731719Y-85723591D01*
X162699500Y-85927019D01*
X162699500Y-86132980D01*
X162731719Y-86336408D01*
X162795367Y-86532294D01*
X162888873Y-86715806D01*
X163009926Y-86882423D01*
X163009930Y-86882428D01*
X163009932Y-86882430D01*
X163155570Y-87028068D01*
X163322197Y-87149129D01*
X163322202Y-87149131D01*
X163323385Y-87149991D01*
X163366051Y-87205321D01*
X163374500Y-87250310D01*
X163374500Y-91558234D01*
X163354815Y-91625273D01*
X163338181Y-91645915D01*
X161241915Y-93742181D01*
X161180592Y-93775666D01*
X161154234Y-93778500D01*
X129147601Y-93778500D01*
X129025222Y-93802843D01*
X129025214Y-93802845D01*
X128909927Y-93850598D01*
X128909918Y-93850603D01*
X128806167Y-93919928D01*
X128806163Y-93919931D01*
X126617647Y-96108447D01*
X126556324Y-96141932D01*
X126491652Y-96138698D01*
X126480119Y-96134951D01*
X126312777Y-96108447D01*
X126268916Y-96101500D01*
X126055084Y-96101500D01*
X126011223Y-96108447D01*
X125843882Y-96134951D01*
X125640519Y-96201026D01*
X125640516Y-96201027D01*
X125449990Y-96298106D01*
X125276993Y-96423796D01*
X125125796Y-96574993D01*
X125000105Y-96747991D01*
X124997727Y-96751873D01*
X124945914Y-96798748D01*
X124876984Y-96810169D01*
X124812822Y-96782512D01*
X124786273Y-96751873D01*
X124783894Y-96747991D01*
X124717060Y-96656002D01*
X124658206Y-96574996D01*
X124507004Y-96423794D01*
X124334009Y-96298106D01*
X124329884Y-96296004D01*
X124143483Y-96201027D01*
X124143480Y-96201026D01*
X123940117Y-96134951D01*
X123772777Y-96108447D01*
X123728916Y-96101500D01*
X123515084Y-96101500D01*
X123471223Y-96108447D01*
X123303882Y-96134951D01*
X123100519Y-96201026D01*
X123100516Y-96201027D01*
X122909990Y-96298106D01*
X122736993Y-96423796D01*
X122585796Y-96574993D01*
X122460105Y-96747991D01*
X122457727Y-96751873D01*
X122405914Y-96798748D01*
X122336984Y-96810169D01*
X122272822Y-96782512D01*
X122246273Y-96751873D01*
X122243894Y-96747991D01*
X122177060Y-96656002D01*
X122118206Y-96574996D01*
X121967004Y-96423794D01*
X121794009Y-96298106D01*
X121789884Y-96296004D01*
X121603483Y-96201027D01*
X121603480Y-96201026D01*
X121400117Y-96134951D01*
X121232777Y-96108447D01*
X121188916Y-96101500D01*
X120975084Y-96101500D01*
X120931223Y-96108447D01*
X120763882Y-96134951D01*
X120560519Y-96201026D01*
X120560516Y-96201027D01*
X120369990Y-96298106D01*
X120196993Y-96423796D01*
X120045796Y-96574993D01*
X119920105Y-96747991D01*
X119917727Y-96751873D01*
X119865914Y-96798748D01*
X119796984Y-96810169D01*
X119732822Y-96782512D01*
X119706273Y-96751873D01*
X119703894Y-96747991D01*
X119637060Y-96656002D01*
X119578206Y-96574996D01*
X119427004Y-96423794D01*
X119254009Y-96298106D01*
X119249884Y-96296004D01*
X119063483Y-96201027D01*
X119063480Y-96201026D01*
X118860117Y-96134951D01*
X118692777Y-96108447D01*
X118648916Y-96101500D01*
X118435084Y-96101500D01*
X118391223Y-96108447D01*
X118223882Y-96134951D01*
X118020519Y-96201026D01*
X118020516Y-96201027D01*
X117829990Y-96298106D01*
X117656997Y-96423793D01*
X117551818Y-96528972D01*
X117490495Y-96562456D01*
X117420803Y-96557472D01*
X117364870Y-96515600D01*
X117347958Y-96484629D01*
X117302889Y-96363796D01*
X117215261Y-96246739D01*
X117098204Y-96159111D01*
X116961203Y-96108011D01*
X116900654Y-96101500D01*
X116900638Y-96101500D01*
X115103362Y-96101500D01*
X115103345Y-96101500D01*
X115042797Y-96108011D01*
X115042795Y-96108011D01*
X114905795Y-96159111D01*
X114788739Y-96246739D01*
X114701111Y-96363795D01*
X114650011Y-96500795D01*
X114650011Y-96500797D01*
X114643500Y-96561345D01*
X100075500Y-96561345D01*
X100075500Y-48301345D01*
X105499500Y-48301345D01*
X105499500Y-50098654D01*
X105506011Y-50159202D01*
X105506011Y-50159204D01*
X105557111Y-50296204D01*
X105644739Y-50413261D01*
X105761796Y-50500889D01*
X105865280Y-50539487D01*
X105897624Y-50551551D01*
X105898799Y-50551989D01*
X105926050Y-50554918D01*
X105959345Y-50558499D01*
X105959362Y-50558500D01*
X107756638Y-50558500D01*
X107756654Y-50558499D01*
X107783692Y-50555591D01*
X107817201Y-50551989D01*
X107818376Y-50551551D01*
X107850714Y-50539489D01*
X107954204Y-50500889D01*
X108071261Y-50413261D01*
X108158889Y-50296204D01*
X108203957Y-50175371D01*
X108245827Y-50119442D01*
X108311291Y-50095025D01*
X108379564Y-50109877D01*
X108407818Y-50131028D01*
X108512996Y-50236206D01*
X108685991Y-50361894D01*
X108779438Y-50409507D01*
X108876516Y-50458972D01*
X108876519Y-50458973D01*
X108978200Y-50492010D01*
X109079884Y-50525049D01*
X109291084Y-50558500D01*
X109291085Y-50558500D01*
X109504915Y-50558500D01*
X109504916Y-50558500D01*
X109716116Y-50525049D01*
X109919483Y-50458972D01*
X110110009Y-50361894D01*
X110283004Y-50236206D01*
X110434206Y-50085004D01*
X110559894Y-49912009D01*
X110559896Y-49912004D01*
X110562270Y-49908132D01*
X110614080Y-49861254D01*
X110683009Y-49849829D01*
X110747173Y-49877483D01*
X110773730Y-49908132D01*
X110776103Y-49912005D01*
X110776105Y-49912008D01*
X110776106Y-49912009D01*
X110901794Y-50085004D01*
X111052996Y-50236206D01*
X111225991Y-50361894D01*
X111319438Y-50409507D01*
X111416516Y-50458972D01*
X111416519Y-50458973D01*
X111518200Y-50492010D01*
X111619884Y-50525049D01*
X111831084Y-50558500D01*
X111831085Y-50558500D01*
X112044915Y-50558500D01*
X112044916Y-50558500D01*
X112256116Y-50525049D01*
X112459483Y-50458972D01*
X112650009Y-50361894D01*
X112823004Y-50236206D01*
X112974206Y-50085004D01*
X113099894Y-49912009D01*
X113102283Y-49907319D01*
X113150254Y-49856522D01*
X113218074Y-49839724D01*
X113284210Y-49862258D01*
X113320201Y-49903788D01*
X113320832Y-49903402D01*
X113323164Y-49907207D01*
X113323251Y-49907308D01*
X113323376Y-49907554D01*
X113448272Y-50079459D01*
X113448276Y-50079464D01*
X113598535Y-50229723D01*
X113598540Y-50229727D01*
X113770442Y-50354620D01*
X113959782Y-50451095D01*
X114161871Y-50516757D01*
X114228000Y-50527231D01*
X114228000Y-49633012D01*
X114285007Y-49665925D01*
X114412174Y-49700000D01*
X114543826Y-49700000D01*
X114670993Y-49665925D01*
X114728000Y-49633012D01*
X114728000Y-50527230D01*
X114794126Y-50516757D01*
X114794129Y-50516757D01*
X114996217Y-50451095D01*
X115185557Y-50354620D01*
X115357459Y-50229727D01*
X115357464Y-50229723D01*
X115507723Y-50079464D01*
X115507727Y-50079459D01*
X115632619Y-49907560D01*
X115632738Y-49907327D01*
X115632808Y-49907252D01*
X115635168Y-49903402D01*
X115635976Y-49903897D01*
X115680707Y-49856526D01*
X115748526Y-49839723D01*
X115814663Y-49862254D01*
X115853712Y-49907311D01*
X115856105Y-49912008D01*
X115894212Y-49964458D01*
X115981794Y-50085004D01*
X116132996Y-50236206D01*
X116305991Y-50361894D01*
X116399438Y-50409507D01*
X116496516Y-50458972D01*
X116496519Y-50458973D01*
X116598200Y-50492010D01*
X116699884Y-50525049D01*
X116911084Y-50558500D01*
X116911085Y-50558500D01*
X117124915Y-50558500D01*
X117124916Y-50558500D01*
X117336116Y-50525049D01*
X117539483Y-50458972D01*
X117730009Y-50361894D01*
X117903004Y-50236206D01*
X118054206Y-50085004D01*
X118179894Y-49912009D01*
X118179896Y-49912004D01*
X118182270Y-49908132D01*
X118234080Y-49861254D01*
X118303009Y-49849829D01*
X118367173Y-49877483D01*
X118393730Y-49908132D01*
X118396103Y-49912005D01*
X118396105Y-49912008D01*
X118396106Y-49912009D01*
X118521794Y-50085004D01*
X118672996Y-50236206D01*
X118845991Y-50361894D01*
X118939438Y-50409507D01*
X119036516Y-50458972D01*
X119036519Y-50458973D01*
X119138200Y-50492010D01*
X119239884Y-50525049D01*
X119451084Y-50558500D01*
X119451085Y-50558500D01*
X119664915Y-50558500D01*
X119664916Y-50558500D01*
X119876116Y-50525049D01*
X120079483Y-50458972D01*
X120270009Y-50361894D01*
X120443004Y-50236206D01*
X120594206Y-50085004D01*
X120719894Y-49912009D01*
X120719896Y-49912004D01*
X120722270Y-49908132D01*
X120774080Y-49861254D01*
X120843009Y-49849829D01*
X120907173Y-49877483D01*
X120933730Y-49908132D01*
X120936103Y-49912005D01*
X120936105Y-49912008D01*
X120936106Y-49912009D01*
X121061794Y-50085004D01*
X121212996Y-50236206D01*
X121385991Y-50361894D01*
X121479438Y-50409507D01*
X121576516Y-50458972D01*
X121576519Y-50458973D01*
X121678200Y-50492010D01*
X121779884Y-50525049D01*
X121991084Y-50558500D01*
X121991085Y-50558500D01*
X122204915Y-50558500D01*
X122204916Y-50558500D01*
X122416116Y-50525049D01*
X122619483Y-50458972D01*
X122810009Y-50361894D01*
X122983004Y-50236206D01*
X123134206Y-50085004D01*
X123259894Y-49912009D01*
X123259896Y-49912004D01*
X123262270Y-49908132D01*
X123314080Y-49861254D01*
X123383009Y-49849829D01*
X123447173Y-49877483D01*
X123473730Y-49908132D01*
X123476103Y-49912005D01*
X123476105Y-49912008D01*
X123476106Y-49912009D01*
X123601794Y-50085004D01*
X123752996Y-50236206D01*
X123925991Y-50361894D01*
X124019438Y-50409507D01*
X124116516Y-50458972D01*
X124116519Y-50458973D01*
X124218200Y-50492010D01*
X124319884Y-50525049D01*
X124531084Y-50558500D01*
X124531085Y-50558500D01*
X124744915Y-50558500D01*
X124744916Y-50558500D01*
X124956116Y-50525049D01*
X125159483Y-50458972D01*
X125350009Y-50361894D01*
X125523004Y-50236206D01*
X125674206Y-50085004D01*
X125799894Y-49912009D01*
X125799896Y-49912004D01*
X125802270Y-49908132D01*
X125854080Y-49861254D01*
X125923009Y-49849829D01*
X125987173Y-49877483D01*
X126013730Y-49908132D01*
X126016103Y-49912005D01*
X126016105Y-49912008D01*
X126016106Y-49912009D01*
X126141794Y-50085004D01*
X126292996Y-50236206D01*
X126465991Y-50361894D01*
X126559438Y-50409507D01*
X126656516Y-50458972D01*
X126656519Y-50458973D01*
X126758200Y-50492010D01*
X126859884Y-50525049D01*
X127071084Y-50558500D01*
X127071085Y-50558500D01*
X127284915Y-50558500D01*
X127284916Y-50558500D01*
X127496116Y-50525049D01*
X127699483Y-50458972D01*
X127890009Y-50361894D01*
X128063004Y-50236206D01*
X128214206Y-50085004D01*
X128339894Y-49912009D01*
X128339896Y-49912004D01*
X128342270Y-49908132D01*
X128394080Y-49861254D01*
X128463009Y-49849829D01*
X128527173Y-49877483D01*
X128553730Y-49908132D01*
X128556103Y-49912005D01*
X128556105Y-49912008D01*
X128556106Y-49912009D01*
X128681794Y-50085004D01*
X128832996Y-50236206D01*
X129005991Y-50361894D01*
X129099438Y-50409507D01*
X129196516Y-50458972D01*
X129196519Y-50458973D01*
X129298200Y-50492010D01*
X129399884Y-50525049D01*
X129611084Y-50558500D01*
X129611085Y-50558500D01*
X129824915Y-50558500D01*
X129824916Y-50558500D01*
X130036116Y-50525049D01*
X130239483Y-50458972D01*
X130430009Y-50361894D01*
X130603004Y-50236206D01*
X130754206Y-50085004D01*
X130879894Y-49912009D01*
X130976972Y-49721483D01*
X131043049Y-49518116D01*
X131076500Y-49306916D01*
X131076500Y-49093084D01*
X131043049Y-48881884D01*
X130976972Y-48678517D01*
X130976972Y-48678516D01*
X130943354Y-48612539D01*
X130879894Y-48487991D01*
X130754206Y-48314996D01*
X130740555Y-48301345D01*
X132423500Y-48301345D01*
X132423500Y-50098654D01*
X132430011Y-50159202D01*
X132430011Y-50159204D01*
X132481111Y-50296204D01*
X132568739Y-50413261D01*
X132685796Y-50500889D01*
X132789280Y-50539487D01*
X132821624Y-50551551D01*
X132822799Y-50551989D01*
X132850050Y-50554918D01*
X132883345Y-50558499D01*
X132883362Y-50558500D01*
X134680638Y-50558500D01*
X134680654Y-50558499D01*
X134707692Y-50555591D01*
X134741201Y-50551989D01*
X134742376Y-50551551D01*
X134774714Y-50539489D01*
X134878204Y-50500889D01*
X134995261Y-50413261D01*
X135082889Y-50296204D01*
X135127957Y-50175371D01*
X135169827Y-50119442D01*
X135235291Y-50095025D01*
X135303564Y-50109877D01*
X135331818Y-50131028D01*
X135436996Y-50236206D01*
X135609991Y-50361894D01*
X135703438Y-50409507D01*
X135800516Y-50458972D01*
X135800519Y-50458973D01*
X135902200Y-50492010D01*
X136003884Y-50525049D01*
X136215084Y-50558500D01*
X136215085Y-50558500D01*
X136428915Y-50558500D01*
X136428916Y-50558500D01*
X136640116Y-50525049D01*
X136843483Y-50458972D01*
X137034009Y-50361894D01*
X137207004Y-50236206D01*
X137358206Y-50085004D01*
X137483894Y-49912009D01*
X137483896Y-49912004D01*
X137486270Y-49908132D01*
X137538080Y-49861254D01*
X137607009Y-49849829D01*
X137671173Y-49877483D01*
X137697730Y-49908132D01*
X137700103Y-49912005D01*
X137700105Y-49912008D01*
X137700106Y-49912009D01*
X137825794Y-50085004D01*
X137976996Y-50236206D01*
X138149991Y-50361894D01*
X138243438Y-50409507D01*
X138340516Y-50458972D01*
X138340519Y-50458973D01*
X138442200Y-50492010D01*
X138543884Y-50525049D01*
X138755084Y-50558500D01*
X138755085Y-50558500D01*
X138968915Y-50558500D01*
X138968916Y-50558500D01*
X139180116Y-50525049D01*
X139191648Y-50521301D01*
X139261485Y-50519305D01*
X139317647Y-50551551D01*
X142903163Y-54137068D01*
X142903167Y-54137071D01*
X143006918Y-54206396D01*
X143006924Y-54206399D01*
X143006925Y-54206400D01*
X143122215Y-54254155D01*
X143244601Y-54278499D01*
X143244605Y-54278500D01*
X143244606Y-54278500D01*
X143369393Y-54278500D01*
X151629234Y-54278500D01*
X151696273Y-54298185D01*
X151716915Y-54314819D01*
X153940181Y-56538085D01*
X153973666Y-56599408D01*
X153976500Y-56625766D01*
X153976500Y-78368398D01*
X154000843Y-78490777D01*
X154000845Y-78490785D01*
X154048598Y-78606072D01*
X154048603Y-78606081D01*
X154117928Y-78709832D01*
X154117931Y-78709836D01*
X155529406Y-80121310D01*
X155562891Y-80182633D01*
X155559656Y-80247308D01*
X155528644Y-80342755D01*
X155491500Y-80577272D01*
X155491500Y-80814727D01*
X155528643Y-81049241D01*
X155602019Y-81275067D01*
X155709815Y-81486628D01*
X155730817Y-81515533D01*
X155754298Y-81581339D01*
X155754500Y-81588420D01*
X155754500Y-84809689D01*
X155734815Y-84876728D01*
X155703385Y-84910007D01*
X155535576Y-85031926D01*
X155535571Y-85031930D01*
X155389930Y-85177571D01*
X155389926Y-85177576D01*
X155268873Y-85344193D01*
X155175367Y-85527705D01*
X155111719Y-85723591D01*
X155079500Y-85927019D01*
X155079500Y-86132980D01*
X155111719Y-86336408D01*
X155175367Y-86532294D01*
X155268873Y-86715806D01*
X155389926Y-86882423D01*
X155389930Y-86882428D01*
X155535571Y-87028069D01*
X155535576Y-87028073D01*
X155680908Y-87133661D01*
X155702197Y-87149129D01*
X155819128Y-87208709D01*
X155885705Y-87242632D01*
X155885707Y-87242632D01*
X155885710Y-87242634D01*
X155990707Y-87276749D01*
X156081591Y-87306280D01*
X156183305Y-87322390D01*
X156285019Y-87338500D01*
X156285020Y-87338500D01*
X156490980Y-87338500D01*
X156490981Y-87338500D01*
X156694408Y-87306280D01*
X156890290Y-87242634D01*
X157073803Y-87149129D01*
X157240430Y-87028068D01*
X157386068Y-86882430D01*
X157507129Y-86715803D01*
X157600634Y-86532290D01*
X157664280Y-86336408D01*
X157696500Y-86132981D01*
X157696500Y-85927019D01*
X157664280Y-85723592D01*
X157600634Y-85527710D01*
X157600632Y-85527707D01*
X157600632Y-85527705D01*
X157566709Y-85461128D01*
X157507129Y-85344197D01*
X157491661Y-85322908D01*
X157386073Y-85177576D01*
X157386069Y-85177571D01*
X157240428Y-85031930D01*
X157240423Y-85031926D01*
X157072615Y-84910007D01*
X157029949Y-84854677D01*
X157021500Y-84809689D01*
X157021500Y-82325804D01*
X157041185Y-82258765D01*
X157093989Y-82213010D01*
X157126101Y-82203331D01*
X157353241Y-82167356D01*
X157579063Y-82093982D01*
X157790627Y-81986185D01*
X157982722Y-81846620D01*
X158150620Y-81678722D01*
X158290185Y-81486627D01*
X158335748Y-81397205D01*
X158383723Y-81346409D01*
X158446233Y-81329500D01*
X162053767Y-81329500D01*
X162120806Y-81349185D01*
X162164252Y-81397205D01*
X162209815Y-81486627D01*
X162349380Y-81678722D01*
X162517278Y-81846620D01*
X162709373Y-81986185D01*
X162809328Y-82037114D01*
X162920932Y-82093980D01*
X162920934Y-82093980D01*
X162920937Y-82093982D01*
X163041984Y-82133312D01*
X163146758Y-82167356D01*
X163381273Y-82204500D01*
X163381278Y-82204500D01*
X163618727Y-82204500D01*
X163853241Y-82167356D01*
X163853244Y-82167355D01*
X164079063Y-82093982D01*
X164290627Y-81986185D01*
X164482722Y-81846620D01*
X164650620Y-81678722D01*
X164790185Y-81486627D01*
X164897982Y-81275063D01*
X164971356Y-81049241D01*
X165008500Y-80814727D01*
X165008500Y-80577272D01*
X164971356Y-80342758D01*
X164897980Y-80116932D01*
X164790184Y-79905372D01*
X164650620Y-79713278D01*
X164482722Y-79545380D01*
X164290627Y-79405815D01*
X164079067Y-79298019D01*
X163853241Y-79224643D01*
X163618727Y-79187500D01*
X163618722Y-79187500D01*
X163381278Y-79187500D01*
X163381273Y-79187500D01*
X163146758Y-79224643D01*
X162920932Y-79298019D01*
X162709372Y-79405815D01*
X162517275Y-79545382D01*
X162349382Y-79713275D01*
X162209815Y-79905372D01*
X162164252Y-79994795D01*
X162116277Y-80045591D01*
X162053767Y-80062500D01*
X158446233Y-80062500D01*
X158379194Y-80042815D01*
X158335748Y-79994795D01*
X158290184Y-79905372D01*
X158150620Y-79713278D01*
X157982722Y-79545380D01*
X157790627Y-79405815D01*
X157579067Y-79298019D01*
X157353241Y-79224643D01*
X157118727Y-79187500D01*
X157118722Y-79187500D01*
X156881278Y-79187500D01*
X156881273Y-79187500D01*
X156646755Y-79224644D01*
X156551308Y-79255656D01*
X156481467Y-79257651D01*
X156425310Y-79225406D01*
X155279819Y-78079915D01*
X155246334Y-78018592D01*
X155243500Y-77992234D01*
X155243500Y-76077947D01*
X155500000Y-76077947D01*
X155500000Y-76314052D01*
X155536934Y-76547247D01*
X155609897Y-76771802D01*
X155717087Y-76982174D01*
X155777338Y-77065104D01*
X155777340Y-77065105D01*
X156476212Y-76366233D01*
X156487482Y-76408292D01*
X156559890Y-76533708D01*
X156662292Y-76636110D01*
X156787708Y-76708518D01*
X156829765Y-76719787D01*
X156130893Y-77418658D01*
X156213828Y-77478914D01*
X156424197Y-77586102D01*
X156648752Y-77659065D01*
X156648751Y-77659065D01*
X156881948Y-77696000D01*
X157118052Y-77696000D01*
X157351247Y-77659065D01*
X157575802Y-77586102D01*
X157786163Y-77478918D01*
X157786169Y-77478914D01*
X157869104Y-77418658D01*
X157869105Y-77418658D01*
X157170233Y-76719787D01*
X157212292Y-76708518D01*
X157337708Y-76636110D01*
X157440110Y-76533708D01*
X157512518Y-76408292D01*
X157523787Y-76366233D01*
X158222658Y-77065105D01*
X158222658Y-77065104D01*
X158282914Y-76982169D01*
X158282918Y-76982163D01*
X158390102Y-76771802D01*
X158463065Y-76547247D01*
X158500000Y-76314052D01*
X158500000Y-76077947D01*
X162000000Y-76077947D01*
X162000000Y-76314052D01*
X162036934Y-76547247D01*
X162109897Y-76771802D01*
X162217087Y-76982174D01*
X162277338Y-77065104D01*
X162277340Y-77065105D01*
X162976212Y-76366233D01*
X162987482Y-76408292D01*
X163059890Y-76533708D01*
X163162292Y-76636110D01*
X163287708Y-76708518D01*
X163329765Y-76719787D01*
X162630893Y-77418658D01*
X162713828Y-77478914D01*
X162924197Y-77586102D01*
X163148752Y-77659065D01*
X163148751Y-77659065D01*
X163381948Y-77696000D01*
X163618052Y-77696000D01*
X163851247Y-77659065D01*
X164075802Y-77586102D01*
X164286163Y-77478918D01*
X164286169Y-77478914D01*
X164369104Y-77418658D01*
X164369105Y-77418658D01*
X163670233Y-76719787D01*
X163712292Y-76708518D01*
X163837708Y-76636110D01*
X163940110Y-76533708D01*
X164012518Y-76408292D01*
X164023787Y-76366233D01*
X164722658Y-77065105D01*
X164722658Y-77065104D01*
X164782914Y-76982169D01*
X164782918Y-76982163D01*
X164890102Y-76771802D01*
X164963065Y-76547247D01*
X165000000Y-76314052D01*
X165000000Y-76077947D01*
X164963065Y-75844752D01*
X164890102Y-75620197D01*
X164782914Y-75409828D01*
X164722658Y-75326894D01*
X164722658Y-75326893D01*
X164023787Y-76025765D01*
X164012518Y-75983708D01*
X163940110Y-75858292D01*
X163837708Y-75755890D01*
X163712292Y-75683482D01*
X163670234Y-75672212D01*
X164369105Y-74973340D01*
X164369104Y-74973338D01*
X164286174Y-74913087D01*
X164075802Y-74805897D01*
X163851247Y-74732934D01*
X163851248Y-74732934D01*
X163618052Y-74696000D01*
X163381948Y-74696000D01*
X163148752Y-74732934D01*
X162924197Y-74805897D01*
X162713830Y-74913084D01*
X162630894Y-74973340D01*
X163329766Y-75672212D01*
X163287708Y-75683482D01*
X163162292Y-75755890D01*
X163059890Y-75858292D01*
X162987482Y-75983708D01*
X162976212Y-76025766D01*
X162277340Y-75326894D01*
X162217084Y-75409830D01*
X162109897Y-75620197D01*
X162036934Y-75844752D01*
X162000000Y-76077947D01*
X158500000Y-76077947D01*
X158463065Y-75844752D01*
X158390102Y-75620197D01*
X158282914Y-75409828D01*
X158222658Y-75326894D01*
X158222658Y-75326893D01*
X157523787Y-76025765D01*
X157512518Y-75983708D01*
X157440110Y-75858292D01*
X157337708Y-75755890D01*
X157212292Y-75683482D01*
X157170234Y-75672212D01*
X157869105Y-74973340D01*
X157869104Y-74973339D01*
X157786174Y-74913087D01*
X157575802Y-74805897D01*
X157351247Y-74732934D01*
X157351248Y-74732934D01*
X157118052Y-74696000D01*
X156881948Y-74696000D01*
X156648752Y-74732934D01*
X156424197Y-74805897D01*
X156213830Y-74913084D01*
X156130894Y-74973340D01*
X156829766Y-75672212D01*
X156787708Y-75683482D01*
X156662292Y-75755890D01*
X156559890Y-75858292D01*
X156487482Y-75983708D01*
X156476212Y-76025766D01*
X155777340Y-75326894D01*
X155717084Y-75409830D01*
X155609897Y-75620197D01*
X155536934Y-75844752D01*
X155500000Y-76077947D01*
X155243500Y-76077947D01*
X155243500Y-64027716D01*
X155263185Y-63960677D01*
X155315989Y-63914922D01*
X155385147Y-63904978D01*
X155448703Y-63934003D01*
X155467818Y-63954831D01*
X155516926Y-64022424D01*
X155516932Y-64022430D01*
X155662570Y-64168068D01*
X155829197Y-64289129D01*
X155829202Y-64289131D01*
X155830385Y-64289991D01*
X155873051Y-64345321D01*
X155881500Y-64390310D01*
X155881500Y-69582398D01*
X155905843Y-69704777D01*
X155905845Y-69704785D01*
X155953598Y-69820072D01*
X155953603Y-69820081D01*
X156022928Y-69923832D01*
X156022931Y-69923836D01*
X157272929Y-71173833D01*
X157356637Y-71257541D01*
X157361168Y-71262072D01*
X157464918Y-71331396D01*
X157464924Y-71331399D01*
X157464925Y-71331400D01*
X157580215Y-71379155D01*
X157702601Y-71403499D01*
X157702605Y-71403500D01*
X157702606Y-71403500D01*
X159702117Y-71403500D01*
X159769156Y-71423185D01*
X159812601Y-71471204D01*
X159818106Y-71482009D01*
X159943794Y-71655004D01*
X160094996Y-71806206D01*
X160267991Y-71931894D01*
X160361438Y-71979507D01*
X160458516Y-72028972D01*
X160458519Y-72028973D01*
X160560200Y-72062010D01*
X160661884Y-72095049D01*
X160873084Y-72128500D01*
X160873085Y-72128500D01*
X161086915Y-72128500D01*
X161086916Y-72128500D01*
X161298116Y-72095049D01*
X161501483Y-72028972D01*
X161692009Y-71931894D01*
X161865004Y-71806206D01*
X162016206Y-71655004D01*
X162141894Y-71482009D01*
X162141896Y-71482004D01*
X162144270Y-71478132D01*
X162196080Y-71431254D01*
X162265009Y-71419829D01*
X162329173Y-71447483D01*
X162355730Y-71478132D01*
X162358103Y-71482005D01*
X162358106Y-71482009D01*
X162483794Y-71655004D01*
X162634996Y-71806206D01*
X162807991Y-71931894D01*
X162901438Y-71979507D01*
X162998516Y-72028972D01*
X162998519Y-72028973D01*
X163100200Y-72062010D01*
X163201884Y-72095049D01*
X163413084Y-72128500D01*
X163413085Y-72128500D01*
X163626915Y-72128500D01*
X163626916Y-72128500D01*
X163838116Y-72095049D01*
X164041483Y-72028972D01*
X164232009Y-71931894D01*
X164405004Y-71806206D01*
X164556206Y-71655004D01*
X164681894Y-71482009D01*
X164778972Y-71291483D01*
X164845049Y-71088116D01*
X164859873Y-70994517D01*
X164889800Y-70931387D01*
X164894628Y-70926274D01*
X165516072Y-70304833D01*
X165585401Y-70201075D01*
X165633155Y-70085784D01*
X165638684Y-70057991D01*
X165657500Y-69963394D01*
X165657500Y-63996606D01*
X165633155Y-63874215D01*
X165585400Y-63758925D01*
X165585399Y-63758924D01*
X165585396Y-63758918D01*
X165516072Y-63655168D01*
X165516071Y-63655167D01*
X165445840Y-63584936D01*
X165412357Y-63523616D01*
X165411050Y-63477859D01*
X165443500Y-63272980D01*
X165443500Y-63067019D01*
X165411280Y-62863591D01*
X165347632Y-62667705D01*
X165313709Y-62601128D01*
X165254129Y-62484197D01*
X165193834Y-62401207D01*
X165133073Y-62317576D01*
X165133069Y-62317571D01*
X164987428Y-62171930D01*
X164987423Y-62171926D01*
X164820806Y-62050873D01*
X164820805Y-62050872D01*
X164820803Y-62050871D01*
X164763496Y-62021671D01*
X164637294Y-61957367D01*
X164441408Y-61893719D01*
X164265794Y-61865905D01*
X164237981Y-61861500D01*
X164032019Y-61861500D01*
X164007550Y-61865375D01*
X163828591Y-61893719D01*
X163632705Y-61957367D01*
X163449193Y-62050873D01*
X163282576Y-62171926D01*
X163282571Y-62171930D01*
X163136930Y-62317571D01*
X163136926Y-62317576D01*
X163015873Y-62484193D01*
X162922367Y-62667705D01*
X162858719Y-62863591D01*
X162826500Y-63067019D01*
X162826500Y-63272980D01*
X162858719Y-63476408D01*
X162922367Y-63672294D01*
X163015873Y-63855806D01*
X163136926Y-64022423D01*
X163136930Y-64022428D01*
X163282571Y-64168069D01*
X163282576Y-64168073D01*
X163427908Y-64273661D01*
X163449197Y-64289129D01*
X163566128Y-64348709D01*
X163632705Y-64382632D01*
X163632707Y-64382632D01*
X163632710Y-64382634D01*
X163737707Y-64416749D01*
X163828591Y-64446280D01*
X163930305Y-64462390D01*
X164032019Y-64478500D01*
X164032020Y-64478500D01*
X164237978Y-64478500D01*
X164237981Y-64478500D01*
X164247102Y-64477055D01*
X164316394Y-64486009D01*
X164369846Y-64531004D01*
X164390487Y-64597755D01*
X164390500Y-64599528D01*
X164390500Y-66946511D01*
X164389724Y-66949152D01*
X164390386Y-66951824D01*
X164379937Y-66982482D01*
X164370815Y-67013550D01*
X164368735Y-67015351D01*
X164367847Y-67017959D01*
X164342473Y-67038108D01*
X164318011Y-67059305D01*
X164315287Y-67059696D01*
X164313131Y-67061409D01*
X164280904Y-67064640D01*
X164248853Y-67069249D01*
X164245511Y-67068189D01*
X164243610Y-67068380D01*
X164210203Y-67056994D01*
X164201203Y-67052408D01*
X164150408Y-67004433D01*
X164133500Y-66941925D01*
X164133500Y-66282605D01*
X164133499Y-66282601D01*
X164109156Y-66160222D01*
X164109155Y-66160215D01*
X164061400Y-66044925D01*
X164061399Y-66044924D01*
X164061396Y-66044918D01*
X163992072Y-65941168D01*
X163992071Y-65941167D01*
X163903833Y-65852929D01*
X161635842Y-63584938D01*
X161602357Y-63523615D01*
X161601050Y-63477859D01*
X161633500Y-63272980D01*
X161633500Y-63067019D01*
X161601280Y-62863591D01*
X161537632Y-62667705D01*
X161503709Y-62601128D01*
X161444129Y-62484197D01*
X161383834Y-62401207D01*
X161323073Y-62317576D01*
X161323069Y-62317571D01*
X161177428Y-62171930D01*
X161177423Y-62171926D01*
X161010806Y-62050873D01*
X161010805Y-62050872D01*
X161010803Y-62050871D01*
X160953496Y-62021671D01*
X160827294Y-61957367D01*
X160631408Y-61893719D01*
X160455794Y-61865905D01*
X160427981Y-61861500D01*
X160222019Y-61861500D01*
X160197550Y-61865375D01*
X160018591Y-61893719D01*
X159822705Y-61957367D01*
X159639193Y-62050873D01*
X159472576Y-62171926D01*
X159472571Y-62171930D01*
X159326930Y-62317571D01*
X159326926Y-62317576D01*
X159205873Y-62484193D01*
X159112367Y-62667705D01*
X159048719Y-62863591D01*
X159016500Y-63067019D01*
X159016500Y-63272980D01*
X159048719Y-63476408D01*
X159112367Y-63672294D01*
X159205873Y-63855806D01*
X159326926Y-64022423D01*
X159326930Y-64022428D01*
X159472571Y-64168069D01*
X159472576Y-64168073D01*
X159617908Y-64273661D01*
X159639197Y-64289129D01*
X159756128Y-64348709D01*
X159822705Y-64382632D01*
X159822707Y-64382632D01*
X159822710Y-64382634D01*
X159927707Y-64416749D01*
X160018591Y-64446280D01*
X160120305Y-64462390D01*
X160222019Y-64478500D01*
X160222020Y-64478500D01*
X160427980Y-64478500D01*
X160427981Y-64478500D01*
X160631408Y-64446280D01*
X160631409Y-64446279D01*
X160632859Y-64446050D01*
X160702152Y-64455004D01*
X160739938Y-64480842D01*
X162830181Y-66571085D01*
X162863666Y-66632408D01*
X162866500Y-66658766D01*
X162866500Y-66962808D01*
X162846815Y-67029847D01*
X162811401Y-67064510D01*
X162811933Y-67065242D01*
X162634997Y-67193793D01*
X162523211Y-67305579D01*
X162461888Y-67339063D01*
X162392196Y-67334079D01*
X162336263Y-67292207D01*
X162319348Y-67261230D01*
X162273354Y-67137913D01*
X162273350Y-67137906D01*
X162187190Y-67022812D01*
X162187187Y-67022809D01*
X162072093Y-66936649D01*
X162072086Y-66936645D01*
X161937379Y-66886403D01*
X161937372Y-66886401D01*
X161877844Y-66880000D01*
X161230000Y-66880000D01*
X161230000Y-67796988D01*
X161172993Y-67764075D01*
X161045826Y-67730000D01*
X160914174Y-67730000D01*
X160787007Y-67764075D01*
X160730000Y-67796988D01*
X160730000Y-66880000D01*
X160082155Y-66880000D01*
X160022627Y-66886401D01*
X160022620Y-66886403D01*
X159887913Y-66936645D01*
X159887906Y-66936649D01*
X159772812Y-67022809D01*
X159772809Y-67022812D01*
X159686649Y-67137906D01*
X159686645Y-67137913D01*
X159636403Y-67272620D01*
X159636401Y-67272627D01*
X159630000Y-67332155D01*
X159630000Y-67980000D01*
X160546988Y-67980000D01*
X160514075Y-68037007D01*
X160480000Y-68164174D01*
X160480000Y-68295826D01*
X160514075Y-68422993D01*
X160546988Y-68480000D01*
X159630000Y-68480000D01*
X159630000Y-69127844D01*
X159636401Y-69187372D01*
X159636403Y-69187379D01*
X159686645Y-69322086D01*
X159686649Y-69322093D01*
X159772809Y-69437187D01*
X159772812Y-69437190D01*
X159887906Y-69523350D01*
X159887913Y-69523354D01*
X160011230Y-69569348D01*
X160067164Y-69611219D01*
X160091581Y-69676683D01*
X160076730Y-69744956D01*
X160055579Y-69773211D01*
X159943793Y-69884997D01*
X159818109Y-70057986D01*
X159818107Y-70057989D01*
X159818106Y-70057991D01*
X159812601Y-70068794D01*
X159764629Y-70119590D01*
X159702117Y-70136500D01*
X158078766Y-70136500D01*
X158011727Y-70116815D01*
X157991085Y-70100181D01*
X157184819Y-69293915D01*
X157151334Y-69232592D01*
X157148500Y-69206234D01*
X157148500Y-64390310D01*
X157168185Y-64323271D01*
X157199615Y-64289991D01*
X157200797Y-64289131D01*
X157200803Y-64289129D01*
X157367430Y-64168068D01*
X157513068Y-64022430D01*
X157634129Y-63855803D01*
X157727634Y-63672290D01*
X157791280Y-63476408D01*
X157823500Y-63272981D01*
X157823500Y-63067019D01*
X157791280Y-62863592D01*
X157727634Y-62667710D01*
X157727632Y-62667707D01*
X157727632Y-62667705D01*
X157693709Y-62601128D01*
X157634129Y-62484197D01*
X157573834Y-62401207D01*
X157513073Y-62317576D01*
X157513069Y-62317571D01*
X157367428Y-62171930D01*
X157367423Y-62171926D01*
X157200806Y-62050873D01*
X157200805Y-62050872D01*
X157200803Y-62050871D01*
X157143496Y-62021671D01*
X157017294Y-61957367D01*
X156821408Y-61893719D01*
X156645794Y-61865905D01*
X156617981Y-61861500D01*
X156412019Y-61861500D01*
X156387550Y-61865375D01*
X156208591Y-61893719D01*
X156012705Y-61957367D01*
X155829193Y-62050873D01*
X155662576Y-62171926D01*
X155662571Y-62171930D01*
X155516930Y-62317571D01*
X155467818Y-62385169D01*
X155412488Y-62427834D01*
X155342875Y-62433813D01*
X155281080Y-62401207D01*
X155246722Y-62340368D01*
X155243500Y-62312283D01*
X155243500Y-56407716D01*
X155263185Y-56340677D01*
X155315989Y-56294922D01*
X155385147Y-56284978D01*
X155448703Y-56314003D01*
X155467818Y-56334831D01*
X155516926Y-56402424D01*
X155662571Y-56548069D01*
X155662576Y-56548073D01*
X155807908Y-56653661D01*
X155829197Y-56669129D01*
X155946128Y-56728709D01*
X156012705Y-56762632D01*
X156012707Y-56762632D01*
X156012710Y-56762634D01*
X156117707Y-56796749D01*
X156208591Y-56826280D01*
X156310305Y-56842390D01*
X156412019Y-56858500D01*
X156412020Y-56858500D01*
X156617980Y-56858500D01*
X156617981Y-56858500D01*
X156821408Y-56826280D01*
X157017290Y-56762634D01*
X157200803Y-56669129D01*
X157367430Y-56548068D01*
X157513068Y-56402430D01*
X157634129Y-56235803D01*
X157727634Y-56052290D01*
X157791280Y-55856408D01*
X157823500Y-55652981D01*
X157823500Y-55447019D01*
X157791280Y-55243592D01*
X157791279Y-55243590D01*
X157727632Y-55047705D01*
X157683099Y-54960305D01*
X157634129Y-54864197D01*
X157618661Y-54842908D01*
X157513073Y-54697576D01*
X157513069Y-54697571D01*
X157367428Y-54551930D01*
X157367423Y-54551926D01*
X157200806Y-54430873D01*
X157200805Y-54430872D01*
X157200803Y-54430871D01*
X157143496Y-54401671D01*
X157017294Y-54337367D01*
X156821408Y-54273719D01*
X156645794Y-54245905D01*
X156617981Y-54241500D01*
X156617980Y-54241500D01*
X156471267Y-54241500D01*
X156404228Y-54221815D01*
X156383586Y-54205181D01*
X155902572Y-53724167D01*
X155398584Y-53220180D01*
X155365100Y-53158858D01*
X155370084Y-53089167D01*
X155411956Y-53033233D01*
X155477420Y-53008816D01*
X155486266Y-53008500D01*
X157153734Y-53008500D01*
X157220773Y-53028185D01*
X157241415Y-53044819D01*
X159093196Y-54896600D01*
X159126681Y-54957923D01*
X159121697Y-55027615D01*
X159116003Y-55040570D01*
X159112368Y-55047703D01*
X159048719Y-55243591D01*
X159016500Y-55447019D01*
X159016500Y-55652980D01*
X159048719Y-55856408D01*
X159112367Y-56052294D01*
X159205873Y-56235806D01*
X159326926Y-56402423D01*
X159326930Y-56402428D01*
X159472571Y-56548069D01*
X159472576Y-56548073D01*
X159617908Y-56653661D01*
X159639197Y-56669129D01*
X159756128Y-56728709D01*
X159822705Y-56762632D01*
X159822707Y-56762632D01*
X159822710Y-56762634D01*
X159927707Y-56796749D01*
X160018591Y-56826280D01*
X160120305Y-56842390D01*
X160222019Y-56858500D01*
X160222020Y-56858500D01*
X160427980Y-56858500D01*
X160427981Y-56858500D01*
X160631408Y-56826280D01*
X160827290Y-56762634D01*
X161010803Y-56669129D01*
X161177430Y-56548068D01*
X161323068Y-56402430D01*
X161444129Y-56235803D01*
X161537634Y-56052290D01*
X161601280Y-55856408D01*
X161633500Y-55652981D01*
X161633500Y-55447019D01*
X161601280Y-55243592D01*
X161601279Y-55243590D01*
X161537632Y-55047705D01*
X161493099Y-54960305D01*
X161444129Y-54864197D01*
X161428661Y-54842908D01*
X161323073Y-54697576D01*
X161323069Y-54697571D01*
X161177428Y-54551930D01*
X161177423Y-54551926D01*
X161010806Y-54430873D01*
X161010805Y-54430872D01*
X161010803Y-54430871D01*
X160953496Y-54401671D01*
X160827294Y-54337367D01*
X160631408Y-54273719D01*
X160455794Y-54245905D01*
X160427981Y-54241500D01*
X160427980Y-54241500D01*
X160281266Y-54241500D01*
X160214227Y-54221815D01*
X160193585Y-54205181D01*
X158573585Y-52585181D01*
X158540100Y-52523858D01*
X158545084Y-52454166D01*
X158586956Y-52398233D01*
X158652420Y-52373816D01*
X158661266Y-52373500D01*
X160011234Y-52373500D01*
X160078273Y-52393185D01*
X160098915Y-52409819D01*
X162824157Y-55135062D01*
X162857642Y-55196385D01*
X162858949Y-55242141D01*
X162826500Y-55447019D01*
X162826500Y-55652980D01*
X162858719Y-55856408D01*
X162922367Y-56052294D01*
X163015873Y-56235806D01*
X163136926Y-56402423D01*
X163136930Y-56402428D01*
X163282571Y-56548069D01*
X163282576Y-56548073D01*
X163427908Y-56653661D01*
X163449197Y-56669129D01*
X163566128Y-56728709D01*
X163632705Y-56762632D01*
X163632707Y-56762632D01*
X163632710Y-56762634D01*
X163737707Y-56796749D01*
X163828591Y-56826280D01*
X163930305Y-56842390D01*
X164032019Y-56858500D01*
X164032020Y-56858500D01*
X164237980Y-56858500D01*
X164237981Y-56858500D01*
X164441408Y-56826280D01*
X164637290Y-56762634D01*
X164820803Y-56669129D01*
X164987430Y-56548068D01*
X165133068Y-56402430D01*
X165254129Y-56235803D01*
X165347634Y-56052290D01*
X165411280Y-55856408D01*
X165443500Y-55652981D01*
X165443500Y-55447019D01*
X165411280Y-55243592D01*
X165411279Y-55243590D01*
X165347632Y-55047705D01*
X165303099Y-54960305D01*
X165254129Y-54864197D01*
X165238661Y-54842908D01*
X165133073Y-54697576D01*
X165133069Y-54697571D01*
X164987428Y-54551930D01*
X164987423Y-54551926D01*
X164820806Y-54430873D01*
X164820805Y-54430872D01*
X164820803Y-54430871D01*
X164763496Y-54401671D01*
X164637294Y-54337367D01*
X164441408Y-54273719D01*
X164265794Y-54245905D01*
X164237981Y-54241500D01*
X164032019Y-54241500D01*
X163998790Y-54246762D01*
X163827141Y-54273949D01*
X163757847Y-54264994D01*
X163720062Y-54239157D01*
X160728836Y-51247931D01*
X160728832Y-51247928D01*
X160625081Y-51178603D01*
X160625072Y-51178598D01*
X160509785Y-51130845D01*
X160509777Y-51130843D01*
X160387398Y-51106500D01*
X160387394Y-51106500D01*
X149335766Y-51106500D01*
X149268727Y-51086815D01*
X149248085Y-51070181D01*
X148948085Y-50770181D01*
X148914600Y-50708858D01*
X148919584Y-50639166D01*
X148961456Y-50583233D01*
X149026920Y-50558816D01*
X149035766Y-50558500D01*
X149128915Y-50558500D01*
X149128916Y-50558500D01*
X149340116Y-50525049D01*
X149543483Y-50458972D01*
X149734009Y-50361894D01*
X149907004Y-50236206D01*
X150058206Y-50085004D01*
X150183894Y-49912009D01*
X150183896Y-49912004D01*
X150186270Y-49908132D01*
X150238080Y-49861254D01*
X150307009Y-49849829D01*
X150371173Y-49877483D01*
X150397730Y-49908132D01*
X150400103Y-49912005D01*
X150400105Y-49912008D01*
X150400106Y-49912009D01*
X150525794Y-50085004D01*
X150676996Y-50236206D01*
X150849991Y-50361894D01*
X150943438Y-50409507D01*
X151040516Y-50458972D01*
X151040519Y-50458973D01*
X151142200Y-50492010D01*
X151243884Y-50525049D01*
X151455084Y-50558500D01*
X151455085Y-50558500D01*
X151668915Y-50558500D01*
X151668916Y-50558500D01*
X151880116Y-50525049D01*
X152083483Y-50458972D01*
X152274009Y-50361894D01*
X152447004Y-50236206D01*
X152598206Y-50085004D01*
X152723894Y-49912009D01*
X152820972Y-49721483D01*
X152887049Y-49518116D01*
X152920500Y-49306916D01*
X152920500Y-49093084D01*
X152887049Y-48881884D01*
X152820972Y-48678517D01*
X152820972Y-48678516D01*
X152771507Y-48581438D01*
X152723894Y-48487991D01*
X152598206Y-48314996D01*
X152447004Y-48163794D01*
X152274009Y-48038106D01*
X152083483Y-47941027D01*
X152083480Y-47941026D01*
X151880117Y-47874951D01*
X151774516Y-47858225D01*
X151668916Y-47841500D01*
X151455084Y-47841500D01*
X151384684Y-47852650D01*
X151243882Y-47874951D01*
X151040519Y-47941026D01*
X151040516Y-47941027D01*
X150849990Y-48038106D01*
X150676993Y-48163796D01*
X150525796Y-48314993D01*
X150400105Y-48487991D01*
X150397727Y-48491873D01*
X150345914Y-48538748D01*
X150276984Y-48550169D01*
X150212822Y-48522512D01*
X150186273Y-48491873D01*
X150183894Y-48487991D01*
X150183891Y-48487987D01*
X150058206Y-48314996D01*
X149907004Y-48163794D01*
X149734009Y-48038106D01*
X149543483Y-47941027D01*
X149543480Y-47941026D01*
X149340117Y-47874951D01*
X149234516Y-47858225D01*
X149128916Y-47841500D01*
X148915084Y-47841500D01*
X148844684Y-47852650D01*
X148703882Y-47874951D01*
X148500519Y-47941026D01*
X148500516Y-47941027D01*
X148309990Y-48038106D01*
X148136993Y-48163796D01*
X147985796Y-48314993D01*
X147860105Y-48487991D01*
X147857727Y-48491873D01*
X147805914Y-48538748D01*
X147736984Y-48550169D01*
X147672822Y-48522512D01*
X147646273Y-48491873D01*
X147643894Y-48487991D01*
X147643891Y-48487987D01*
X147518206Y-48314996D01*
X147367004Y-48163794D01*
X147194009Y-48038106D01*
X147003483Y-47941027D01*
X147003480Y-47941026D01*
X146800117Y-47874951D01*
X146694516Y-47858225D01*
X146588916Y-47841500D01*
X146375084Y-47841500D01*
X146304684Y-47852650D01*
X146163882Y-47874951D01*
X145960519Y-47941026D01*
X145960516Y-47941027D01*
X145769990Y-48038106D01*
X145596993Y-48163796D01*
X145445796Y-48314993D01*
X145320105Y-48487991D01*
X145317727Y-48491873D01*
X145265914Y-48538748D01*
X145196984Y-48550169D01*
X145132822Y-48522512D01*
X145106273Y-48491873D01*
X145103894Y-48487991D01*
X145103891Y-48487987D01*
X144978206Y-48314996D01*
X144827004Y-48163794D01*
X144654009Y-48038106D01*
X144463483Y-47941027D01*
X144463480Y-47941026D01*
X144260117Y-47874951D01*
X144154516Y-47858225D01*
X144048916Y-47841500D01*
X143835084Y-47841500D01*
X143764684Y-47852650D01*
X143623882Y-47874951D01*
X143420519Y-47941026D01*
X143420516Y-47941027D01*
X143229990Y-48038106D01*
X143056993Y-48163796D01*
X142905796Y-48314993D01*
X142780105Y-48487991D01*
X142777727Y-48491873D01*
X142725914Y-48538748D01*
X142656984Y-48550169D01*
X142592822Y-48522512D01*
X142566273Y-48491873D01*
X142563894Y-48487991D01*
X142563891Y-48487987D01*
X142438206Y-48314996D01*
X142287004Y-48163794D01*
X142114009Y-48038106D01*
X141923483Y-47941027D01*
X141923480Y-47941026D01*
X141720117Y-47874951D01*
X141614516Y-47858225D01*
X141508916Y-47841500D01*
X141295084Y-47841500D01*
X141224684Y-47852650D01*
X141083882Y-47874951D01*
X140880519Y-47941026D01*
X140880516Y-47941027D01*
X140689990Y-48038106D01*
X140516993Y-48163796D01*
X140365796Y-48314993D01*
X140240105Y-48487991D01*
X140237727Y-48491873D01*
X140185914Y-48538748D01*
X140116984Y-48550169D01*
X140052822Y-48522512D01*
X140026273Y-48491873D01*
X140023894Y-48487991D01*
X140023891Y-48487987D01*
X139898206Y-48314996D01*
X139747004Y-48163794D01*
X139574009Y-48038106D01*
X139383483Y-47941027D01*
X139383480Y-47941026D01*
X139180117Y-47874951D01*
X139074516Y-47858225D01*
X138968916Y-47841500D01*
X138755084Y-47841500D01*
X138684684Y-47852650D01*
X138543882Y-47874951D01*
X138340519Y-47941026D01*
X138340516Y-47941027D01*
X138149990Y-48038106D01*
X137976993Y-48163796D01*
X137825796Y-48314993D01*
X137700105Y-48487991D01*
X137697727Y-48491873D01*
X137645914Y-48538748D01*
X137576984Y-48550169D01*
X137512822Y-48522512D01*
X137486273Y-48491873D01*
X137483894Y-48487991D01*
X137483891Y-48487987D01*
X137358206Y-48314996D01*
X137207004Y-48163794D01*
X137034009Y-48038106D01*
X136843483Y-47941027D01*
X136843480Y-47941026D01*
X136640117Y-47874951D01*
X136534516Y-47858225D01*
X136428916Y-47841500D01*
X136215084Y-47841500D01*
X136144684Y-47852650D01*
X136003882Y-47874951D01*
X135800519Y-47941026D01*
X135800516Y-47941027D01*
X135609990Y-48038106D01*
X135436997Y-48163793D01*
X135331818Y-48268972D01*
X135270495Y-48302456D01*
X135200803Y-48297472D01*
X135144870Y-48255600D01*
X135127958Y-48224629D01*
X135082889Y-48103796D01*
X134995261Y-47986739D01*
X134878204Y-47899111D01*
X134741203Y-47848011D01*
X134680654Y-47841500D01*
X134680638Y-47841500D01*
X132883362Y-47841500D01*
X132883345Y-47841500D01*
X132822797Y-47848011D01*
X132822795Y-47848011D01*
X132685795Y-47899111D01*
X132568739Y-47986739D01*
X132481111Y-48103795D01*
X132430011Y-48240795D01*
X132430011Y-48240797D01*
X132423500Y-48301345D01*
X130740555Y-48301345D01*
X130603004Y-48163794D01*
X130430009Y-48038106D01*
X130239483Y-47941027D01*
X130239480Y-47941026D01*
X130036117Y-47874951D01*
X129930516Y-47858225D01*
X129824916Y-47841500D01*
X129611084Y-47841500D01*
X129540684Y-47852650D01*
X129399882Y-47874951D01*
X129196519Y-47941026D01*
X129196516Y-47941027D01*
X129005990Y-48038106D01*
X128832993Y-48163796D01*
X128681796Y-48314993D01*
X128556105Y-48487991D01*
X128553727Y-48491873D01*
X128501914Y-48538748D01*
X128432984Y-48550169D01*
X128368822Y-48522512D01*
X128342273Y-48491873D01*
X128339894Y-48487991D01*
X128339891Y-48487987D01*
X128214206Y-48314996D01*
X128063004Y-48163794D01*
X127890009Y-48038106D01*
X127699483Y-47941027D01*
X127699480Y-47941026D01*
X127496117Y-47874951D01*
X127390516Y-47858225D01*
X127284916Y-47841500D01*
X127071084Y-47841500D01*
X127000684Y-47852650D01*
X126859882Y-47874951D01*
X126656519Y-47941026D01*
X126656516Y-47941027D01*
X126465990Y-48038106D01*
X126292993Y-48163796D01*
X126141796Y-48314993D01*
X126016105Y-48487991D01*
X126013727Y-48491873D01*
X125961914Y-48538748D01*
X125892984Y-48550169D01*
X125828822Y-48522512D01*
X125802273Y-48491873D01*
X125799894Y-48487991D01*
X125799891Y-48487987D01*
X125674206Y-48314996D01*
X125523004Y-48163794D01*
X125350009Y-48038106D01*
X125159483Y-47941027D01*
X125159480Y-47941026D01*
X124956117Y-47874951D01*
X124850516Y-47858225D01*
X124744916Y-47841500D01*
X124531084Y-47841500D01*
X124460684Y-47852650D01*
X124319882Y-47874951D01*
X124116519Y-47941026D01*
X124116516Y-47941027D01*
X123925990Y-48038106D01*
X123752993Y-48163796D01*
X123601796Y-48314993D01*
X123476105Y-48487991D01*
X123473727Y-48491873D01*
X123421914Y-48538748D01*
X123352984Y-48550169D01*
X123288822Y-48522512D01*
X123262273Y-48491873D01*
X123259894Y-48487991D01*
X123259891Y-48487987D01*
X123134206Y-48314996D01*
X122983004Y-48163794D01*
X122810009Y-48038106D01*
X122619483Y-47941027D01*
X122619480Y-47941026D01*
X122416117Y-47874951D01*
X122310516Y-47858225D01*
X122204916Y-47841500D01*
X121991084Y-47841500D01*
X121920684Y-47852650D01*
X121779882Y-47874951D01*
X121576519Y-47941026D01*
X121576516Y-47941027D01*
X121385990Y-48038106D01*
X121212993Y-48163796D01*
X121061796Y-48314993D01*
X120936105Y-48487991D01*
X120933727Y-48491873D01*
X120881914Y-48538748D01*
X120812984Y-48550169D01*
X120748822Y-48522512D01*
X120722273Y-48491873D01*
X120719894Y-48487991D01*
X120719891Y-48487987D01*
X120594206Y-48314996D01*
X120443004Y-48163794D01*
X120270009Y-48038106D01*
X120079483Y-47941027D01*
X120079480Y-47941026D01*
X119876117Y-47874951D01*
X119770516Y-47858225D01*
X119664916Y-47841500D01*
X119451084Y-47841500D01*
X119380684Y-47852650D01*
X119239882Y-47874951D01*
X119036519Y-47941026D01*
X119036516Y-47941027D01*
X118845990Y-48038106D01*
X118672993Y-48163796D01*
X118521796Y-48314993D01*
X118396105Y-48487991D01*
X118393727Y-48491873D01*
X118341914Y-48538748D01*
X118272984Y-48550169D01*
X118208822Y-48522512D01*
X118182273Y-48491873D01*
X118179894Y-48487991D01*
X118179891Y-48487987D01*
X118054206Y-48314996D01*
X117903004Y-48163794D01*
X117730009Y-48038106D01*
X117539483Y-47941027D01*
X117539480Y-47941026D01*
X117336117Y-47874951D01*
X117230516Y-47858225D01*
X117124916Y-47841500D01*
X116911084Y-47841500D01*
X116840684Y-47852650D01*
X116699882Y-47874951D01*
X116496519Y-47941026D01*
X116496516Y-47941027D01*
X116305990Y-48038106D01*
X116132993Y-48163796D01*
X115981796Y-48314993D01*
X115856103Y-48487994D01*
X115853709Y-48492693D01*
X115805731Y-48543485D01*
X115737908Y-48560275D01*
X115671775Y-48537732D01*
X115635800Y-48496210D01*
X115635168Y-48496598D01*
X115632829Y-48492781D01*
X115632743Y-48492682D01*
X115632620Y-48492441D01*
X115507727Y-48320540D01*
X115507723Y-48320535D01*
X115357464Y-48170276D01*
X115357459Y-48170272D01*
X115185557Y-48045379D01*
X114996215Y-47948903D01*
X114794124Y-47883241D01*
X114728000Y-47872768D01*
X114728000Y-48766988D01*
X114670993Y-48734075D01*
X114543826Y-48700000D01*
X114412174Y-48700000D01*
X114285007Y-48734075D01*
X114228000Y-48766988D01*
X114228000Y-47872768D01*
X114227999Y-47872768D01*
X114161875Y-47883241D01*
X113959784Y-47948903D01*
X113770442Y-48045379D01*
X113598540Y-48170272D01*
X113598535Y-48170276D01*
X113448276Y-48320535D01*
X113448272Y-48320540D01*
X113323376Y-48492446D01*
X113323374Y-48492448D01*
X113323246Y-48492701D01*
X113323172Y-48492779D01*
X113320832Y-48496598D01*
X113320029Y-48496106D01*
X113275264Y-48543489D01*
X113207441Y-48560274D01*
X113141309Y-48537727D01*
X113102285Y-48492683D01*
X113099895Y-48487992D01*
X113068472Y-48444742D01*
X112974206Y-48314996D01*
X112823004Y-48163794D01*
X112650009Y-48038106D01*
X112459483Y-47941027D01*
X112459480Y-47941026D01*
X112256117Y-47874951D01*
X112150516Y-47858225D01*
X112044916Y-47841500D01*
X111831084Y-47841500D01*
X111760684Y-47852650D01*
X111619882Y-47874951D01*
X111416519Y-47941026D01*
X111416516Y-47941027D01*
X111225990Y-48038106D01*
X111052993Y-48163796D01*
X110901796Y-48314993D01*
X110776105Y-48487991D01*
X110773727Y-48491873D01*
X110721914Y-48538748D01*
X110652984Y-48550169D01*
X110588822Y-48522512D01*
X110562273Y-48491873D01*
X110559894Y-48487991D01*
X110559891Y-48487987D01*
X110434206Y-48314996D01*
X110283004Y-48163794D01*
X110110009Y-48038106D01*
X109919483Y-47941027D01*
X109919480Y-47941026D01*
X109716117Y-47874951D01*
X109610516Y-47858225D01*
X109504916Y-47841500D01*
X109291084Y-47841500D01*
X109220684Y-47852650D01*
X109079882Y-47874951D01*
X108876519Y-47941026D01*
X108876516Y-47941027D01*
X108685990Y-48038106D01*
X108512997Y-48163793D01*
X108407818Y-48268972D01*
X108346495Y-48302456D01*
X108276803Y-48297472D01*
X108220870Y-48255600D01*
X108203958Y-48224629D01*
X108158889Y-48103796D01*
X108071261Y-47986739D01*
X107954204Y-47899111D01*
X107817203Y-47848011D01*
X107756654Y-47841500D01*
X107756638Y-47841500D01*
X105959362Y-47841500D01*
X105959345Y-47841500D01*
X105898797Y-47848011D01*
X105898795Y-47848011D01*
X105761795Y-47899111D01*
X105644739Y-47986739D01*
X105557111Y-48103795D01*
X105506011Y-48240795D01*
X105506011Y-48240797D01*
X105499500Y-48301345D01*
X100075500Y-48301345D01*
X100075500Y-47428092D01*
X100076097Y-47415938D01*
X100087494Y-47300222D01*
X100087494Y-47300221D01*
X100092234Y-47276389D01*
X100124216Y-47170959D01*
X100133508Y-47148526D01*
X100185442Y-47051365D01*
X100198938Y-47031166D01*
X100268827Y-46946006D01*
X100286006Y-46928827D01*
X100371166Y-46858938D01*
X100391365Y-46845442D01*
X100488526Y-46793508D01*
X100510959Y-46784216D01*
X100616389Y-46752234D01*
X100640220Y-46747494D01*
X100755939Y-46736097D01*
X100768093Y-46735500D01*
X100786531Y-46735500D01*
X124242233Y-46735500D01*
X124242464Y-46735594D01*
X124257169Y-46735500D01*
X124272018Y-46735500D01*
X124272019Y-46735500D01*
X124272388Y-46735425D01*
X124272495Y-46735403D01*
X124272497Y-46735402D01*
X124272500Y-46735402D01*
X124286104Y-46729665D01*
X124286175Y-46729635D01*
X124299767Y-46724006D01*
X124299771Y-46724000D01*
X124300170Y-46723733D01*
X124300175Y-46723732D01*
X124310601Y-46713171D01*
X124321006Y-46702767D01*
X124321006Y-46702765D01*
X124328554Y-46695219D01*
X124329628Y-46693898D01*
X126870870Y-44119995D01*
X129511015Y-44119995D01*
X129511015Y-44120004D01*
X129528928Y-44359052D01*
X129528929Y-44359057D01*
X129582275Y-44592785D01*
X129669859Y-44815943D01*
X129669858Y-44815943D01*
X129745850Y-44947564D01*
X129789725Y-45023557D01*
X129885970Y-45144244D01*
X129939199Y-45210991D01*
X130105093Y-45364916D01*
X130114932Y-45374046D01*
X130313008Y-45509092D01*
X130528998Y-45613108D01*
X130758080Y-45683770D01*
X130758081Y-45683770D01*
X130758084Y-45683771D01*
X130995126Y-45719499D01*
X130995131Y-45719499D01*
X130995134Y-45719500D01*
X130995135Y-45719500D01*
X148252865Y-45719500D01*
X148252866Y-45719500D01*
X148252873Y-45719499D01*
X148489915Y-45683771D01*
X148489916Y-45683770D01*
X148489920Y-45683770D01*
X148719002Y-45613108D01*
X148934993Y-45509092D01*
X149133068Y-45374046D01*
X149308804Y-45210987D01*
X149458275Y-45023557D01*
X149578141Y-44815943D01*
X149627208Y-44690919D01*
X149665724Y-44592785D01*
X149680965Y-44526005D01*
X149719070Y-44359062D01*
X149719071Y-44359052D01*
X149736985Y-44120004D01*
X149736985Y-44119995D01*
X149719071Y-43880947D01*
X149719070Y-43880942D01*
X149719070Y-43880938D01*
X149688586Y-43747383D01*
X149665724Y-43647214D01*
X149593187Y-43462395D01*
X149578141Y-43424057D01*
X149578140Y-43424056D01*
X149578141Y-43424056D01*
X149534266Y-43348064D01*
X149458275Y-43216443D01*
X149308804Y-43029013D01*
X149308803Y-43029012D01*
X149308800Y-43029008D01*
X149195578Y-42923954D01*
X149133068Y-42865954D01*
X148934993Y-42730908D01*
X148934987Y-42730905D01*
X148934984Y-42730903D01*
X148719004Y-42626893D01*
X148719006Y-42626893D01*
X148489921Y-42556230D01*
X148489915Y-42556228D01*
X148252873Y-42520500D01*
X148252866Y-42520500D01*
X148148018Y-42520500D01*
X131139531Y-42520500D01*
X131115000Y-42520500D01*
X130995134Y-42520500D01*
X130995126Y-42520500D01*
X130758084Y-42556228D01*
X130758078Y-42556230D01*
X130528997Y-42626892D01*
X130313012Y-42730905D01*
X130114931Y-42865954D01*
X129939199Y-43029008D01*
X129789725Y-43216443D01*
X129669859Y-43424056D01*
X129582275Y-43647214D01*
X129528929Y-43880942D01*
X129528928Y-43880947D01*
X129511015Y-44119995D01*
X126870870Y-44119995D01*
X129101033Y-41861170D01*
X129110597Y-41852447D01*
X129200165Y-41778941D01*
X129220367Y-41765442D01*
X129317524Y-41713511D01*
X129339962Y-41704216D01*
X129445395Y-41672233D01*
X129469217Y-41667495D01*
X129584952Y-41656096D01*
X129597099Y-41655500D01*
X129615531Y-41655500D01*
X149632469Y-41655500D01*
X149652125Y-41655500D01*
X149661853Y-41655882D01*
G37*
%TD.AperFunction*%
%TD*%
M02*
