%TF.GenerationSoftware,KiCad,Pcbnew,9.0.7*%
%TF.CreationDate,2026-05-12T17:19:37+02:00*%
%TF.ProjectId,ampel_kicad,616d7065-6c5f-46b6-9963-61642e6b6963,rev?*%
%TF.SameCoordinates,Original*%
%TF.FileFunction,Legend,Top*%
%TF.FilePolarity,Positive*%
%FSLAX46Y46*%
G04 Gerber Fmt 4.6, Leading zero omitted, Abs format (unit mm)*
G04 Created by KiCad (PCBNEW 9.0.7) date 2026-05-12 17:19:37*
%MOMM*%
%LPD*%
G01*
G04 APERTURE LIST*
%ADD10C,0.150000*%
%ADD11C,0.120000*%
G04 APERTURE END LIST*
D10*
X102286000Y-56185000D02*
X152705000Y-56185000D01*
X152705000Y-92634000D01*
X102286000Y-92634000D01*
X102286000Y-56185000D01*
G36*
X102286000Y-56185000D02*
G01*
X152705000Y-56185000D01*
X152705000Y-92634000D01*
X102286000Y-92634000D01*
X102286000Y-56185000D01*
G37*
X163233541Y-94123152D02*
X163471636Y-94789819D01*
X163471636Y-94789819D02*
X163709731Y-94123152D01*
X164043065Y-93885057D02*
X164090684Y-93837438D01*
X164090684Y-93837438D02*
X164185922Y-93789819D01*
X164185922Y-93789819D02*
X164424017Y-93789819D01*
X164424017Y-93789819D02*
X164519255Y-93837438D01*
X164519255Y-93837438D02*
X164566874Y-93885057D01*
X164566874Y-93885057D02*
X164614493Y-93980295D01*
X164614493Y-93980295D02*
X164614493Y-94075533D01*
X164614493Y-94075533D02*
X164566874Y-94218390D01*
X164566874Y-94218390D02*
X163995446Y-94789819D01*
X163995446Y-94789819D02*
X164614493Y-94789819D01*
X159392857Y-78853200D02*
X159535714Y-78900819D01*
X159535714Y-78900819D02*
X159773809Y-78900819D01*
X159773809Y-78900819D02*
X159869047Y-78853200D01*
X159869047Y-78853200D02*
X159916666Y-78805580D01*
X159916666Y-78805580D02*
X159964285Y-78710342D01*
X159964285Y-78710342D02*
X159964285Y-78615104D01*
X159964285Y-78615104D02*
X159916666Y-78519866D01*
X159916666Y-78519866D02*
X159869047Y-78472247D01*
X159869047Y-78472247D02*
X159773809Y-78424628D01*
X159773809Y-78424628D02*
X159583333Y-78377009D01*
X159583333Y-78377009D02*
X159488095Y-78329390D01*
X159488095Y-78329390D02*
X159440476Y-78281771D01*
X159440476Y-78281771D02*
X159392857Y-78186533D01*
X159392857Y-78186533D02*
X159392857Y-78091295D01*
X159392857Y-78091295D02*
X159440476Y-77996057D01*
X159440476Y-77996057D02*
X159488095Y-77948438D01*
X159488095Y-77948438D02*
X159583333Y-77900819D01*
X159583333Y-77900819D02*
X159821428Y-77900819D01*
X159821428Y-77900819D02*
X159964285Y-77948438D01*
X160297619Y-77900819D02*
X160535714Y-78900819D01*
X160535714Y-78900819D02*
X160726190Y-78186533D01*
X160726190Y-78186533D02*
X160916666Y-78900819D01*
X160916666Y-78900819D02*
X161154762Y-77900819D01*
X160779819Y-61336190D02*
X160303628Y-61669523D01*
X160779819Y-61907618D02*
X159779819Y-61907618D01*
X159779819Y-61907618D02*
X159779819Y-61526666D01*
X159779819Y-61526666D02*
X159827438Y-61431428D01*
X159827438Y-61431428D02*
X159875057Y-61383809D01*
X159875057Y-61383809D02*
X159970295Y-61336190D01*
X159970295Y-61336190D02*
X160113152Y-61336190D01*
X160113152Y-61336190D02*
X160208390Y-61383809D01*
X160208390Y-61383809D02*
X160256009Y-61431428D01*
X160256009Y-61431428D02*
X160303628Y-61526666D01*
X160303628Y-61526666D02*
X160303628Y-61907618D01*
X159875057Y-60955237D02*
X159827438Y-60907618D01*
X159827438Y-60907618D02*
X159779819Y-60812380D01*
X159779819Y-60812380D02*
X159779819Y-60574285D01*
X159779819Y-60574285D02*
X159827438Y-60479047D01*
X159827438Y-60479047D02*
X159875057Y-60431428D01*
X159875057Y-60431428D02*
X159970295Y-60383809D01*
X159970295Y-60383809D02*
X160065533Y-60383809D01*
X160065533Y-60383809D02*
X160208390Y-60431428D01*
X160208390Y-60431428D02*
X160779819Y-61002856D01*
X160779819Y-61002856D02*
X160779819Y-60383809D01*
X159875057Y-59240951D02*
X159827438Y-59193332D01*
X159827438Y-59193332D02*
X159779819Y-59098094D01*
X159779819Y-59098094D02*
X159779819Y-58859999D01*
X159779819Y-58859999D02*
X159827438Y-58764761D01*
X159827438Y-58764761D02*
X159875057Y-58717142D01*
X159875057Y-58717142D02*
X159970295Y-58669523D01*
X159970295Y-58669523D02*
X160065533Y-58669523D01*
X160065533Y-58669523D02*
X160208390Y-58717142D01*
X160208390Y-58717142D02*
X160779819Y-59288570D01*
X160779819Y-59288570D02*
X160779819Y-58669523D01*
X159875057Y-58288570D02*
X159827438Y-58240951D01*
X159827438Y-58240951D02*
X159779819Y-58145713D01*
X159779819Y-58145713D02*
X159779819Y-57907618D01*
X159779819Y-57907618D02*
X159827438Y-57812380D01*
X159827438Y-57812380D02*
X159875057Y-57764761D01*
X159875057Y-57764761D02*
X159970295Y-57717142D01*
X159970295Y-57717142D02*
X160065533Y-57717142D01*
X160065533Y-57717142D02*
X160208390Y-57764761D01*
X160208390Y-57764761D02*
X160779819Y-58336189D01*
X160779819Y-58336189D02*
X160779819Y-57717142D01*
X159779819Y-57098094D02*
X159779819Y-57002856D01*
X159779819Y-57002856D02*
X159827438Y-56907618D01*
X159827438Y-56907618D02*
X159875057Y-56859999D01*
X159875057Y-56859999D02*
X159970295Y-56812380D01*
X159970295Y-56812380D02*
X160160771Y-56764761D01*
X160160771Y-56764761D02*
X160398866Y-56764761D01*
X160398866Y-56764761D02*
X160589342Y-56812380D01*
X160589342Y-56812380D02*
X160684580Y-56859999D01*
X160684580Y-56859999D02*
X160732200Y-56907618D01*
X160732200Y-56907618D02*
X160779819Y-57002856D01*
X160779819Y-57002856D02*
X160779819Y-57098094D01*
X160779819Y-57098094D02*
X160732200Y-57193332D01*
X160732200Y-57193332D02*
X160684580Y-57240951D01*
X160684580Y-57240951D02*
X160589342Y-57288570D01*
X160589342Y-57288570D02*
X160398866Y-57336189D01*
X160398866Y-57336189D02*
X160160771Y-57336189D01*
X160160771Y-57336189D02*
X159970295Y-57288570D01*
X159970295Y-57288570D02*
X159875057Y-57240951D01*
X159875057Y-57240951D02*
X159827438Y-57193332D01*
X159827438Y-57193332D02*
X159779819Y-57098094D01*
X164589819Y-61336190D02*
X164113628Y-61669523D01*
X164589819Y-61907618D02*
X163589819Y-61907618D01*
X163589819Y-61907618D02*
X163589819Y-61526666D01*
X163589819Y-61526666D02*
X163637438Y-61431428D01*
X163637438Y-61431428D02*
X163685057Y-61383809D01*
X163685057Y-61383809D02*
X163780295Y-61336190D01*
X163780295Y-61336190D02*
X163923152Y-61336190D01*
X163923152Y-61336190D02*
X164018390Y-61383809D01*
X164018390Y-61383809D02*
X164066009Y-61431428D01*
X164066009Y-61431428D02*
X164113628Y-61526666D01*
X164113628Y-61526666D02*
X164113628Y-61907618D01*
X164589819Y-60383809D02*
X164589819Y-60955237D01*
X164589819Y-60669523D02*
X163589819Y-60669523D01*
X163589819Y-60669523D02*
X163732676Y-60764761D01*
X163732676Y-60764761D02*
X163827914Y-60859999D01*
X163827914Y-60859999D02*
X163875533Y-60955237D01*
X163685057Y-59240951D02*
X163637438Y-59193332D01*
X163637438Y-59193332D02*
X163589819Y-59098094D01*
X163589819Y-59098094D02*
X163589819Y-58859999D01*
X163589819Y-58859999D02*
X163637438Y-58764761D01*
X163637438Y-58764761D02*
X163685057Y-58717142D01*
X163685057Y-58717142D02*
X163780295Y-58669523D01*
X163780295Y-58669523D02*
X163875533Y-58669523D01*
X163875533Y-58669523D02*
X164018390Y-58717142D01*
X164018390Y-58717142D02*
X164589819Y-59288570D01*
X164589819Y-59288570D02*
X164589819Y-58669523D01*
X163685057Y-58288570D02*
X163637438Y-58240951D01*
X163637438Y-58240951D02*
X163589819Y-58145713D01*
X163589819Y-58145713D02*
X163589819Y-57907618D01*
X163589819Y-57907618D02*
X163637438Y-57812380D01*
X163637438Y-57812380D02*
X163685057Y-57764761D01*
X163685057Y-57764761D02*
X163780295Y-57717142D01*
X163780295Y-57717142D02*
X163875533Y-57717142D01*
X163875533Y-57717142D02*
X164018390Y-57764761D01*
X164018390Y-57764761D02*
X164589819Y-58336189D01*
X164589819Y-58336189D02*
X164589819Y-57717142D01*
X163589819Y-57098094D02*
X163589819Y-57002856D01*
X163589819Y-57002856D02*
X163637438Y-56907618D01*
X163637438Y-56907618D02*
X163685057Y-56859999D01*
X163685057Y-56859999D02*
X163780295Y-56812380D01*
X163780295Y-56812380D02*
X163970771Y-56764761D01*
X163970771Y-56764761D02*
X164208866Y-56764761D01*
X164208866Y-56764761D02*
X164399342Y-56812380D01*
X164399342Y-56812380D02*
X164494580Y-56859999D01*
X164494580Y-56859999D02*
X164542200Y-56907618D01*
X164542200Y-56907618D02*
X164589819Y-57002856D01*
X164589819Y-57002856D02*
X164589819Y-57098094D01*
X164589819Y-57098094D02*
X164542200Y-57193332D01*
X164542200Y-57193332D02*
X164494580Y-57240951D01*
X164494580Y-57240951D02*
X164399342Y-57288570D01*
X164399342Y-57288570D02*
X164208866Y-57336189D01*
X164208866Y-57336189D02*
X163970771Y-57336189D01*
X163970771Y-57336189D02*
X163780295Y-57288570D01*
X163780295Y-57288570D02*
X163685057Y-57240951D01*
X163685057Y-57240951D02*
X163637438Y-57193332D01*
X163637438Y-57193332D02*
X163589819Y-57098094D01*
X156969819Y-61336190D02*
X156493628Y-61669523D01*
X156969819Y-61907618D02*
X155969819Y-61907618D01*
X155969819Y-61907618D02*
X155969819Y-61526666D01*
X155969819Y-61526666D02*
X156017438Y-61431428D01*
X156017438Y-61431428D02*
X156065057Y-61383809D01*
X156065057Y-61383809D02*
X156160295Y-61336190D01*
X156160295Y-61336190D02*
X156303152Y-61336190D01*
X156303152Y-61336190D02*
X156398390Y-61383809D01*
X156398390Y-61383809D02*
X156446009Y-61431428D01*
X156446009Y-61431428D02*
X156493628Y-61526666D01*
X156493628Y-61526666D02*
X156493628Y-61907618D01*
X155969819Y-61002856D02*
X155969819Y-60383809D01*
X155969819Y-60383809D02*
X156350771Y-60717142D01*
X156350771Y-60717142D02*
X156350771Y-60574285D01*
X156350771Y-60574285D02*
X156398390Y-60479047D01*
X156398390Y-60479047D02*
X156446009Y-60431428D01*
X156446009Y-60431428D02*
X156541247Y-60383809D01*
X156541247Y-60383809D02*
X156779342Y-60383809D01*
X156779342Y-60383809D02*
X156874580Y-60431428D01*
X156874580Y-60431428D02*
X156922200Y-60479047D01*
X156922200Y-60479047D02*
X156969819Y-60574285D01*
X156969819Y-60574285D02*
X156969819Y-60859999D01*
X156969819Y-60859999D02*
X156922200Y-60955237D01*
X156922200Y-60955237D02*
X156874580Y-61002856D01*
X156065057Y-59240951D02*
X156017438Y-59193332D01*
X156017438Y-59193332D02*
X155969819Y-59098094D01*
X155969819Y-59098094D02*
X155969819Y-58859999D01*
X155969819Y-58859999D02*
X156017438Y-58764761D01*
X156017438Y-58764761D02*
X156065057Y-58717142D01*
X156065057Y-58717142D02*
X156160295Y-58669523D01*
X156160295Y-58669523D02*
X156255533Y-58669523D01*
X156255533Y-58669523D02*
X156398390Y-58717142D01*
X156398390Y-58717142D02*
X156969819Y-59288570D01*
X156969819Y-59288570D02*
X156969819Y-58669523D01*
X156065057Y-58288570D02*
X156017438Y-58240951D01*
X156017438Y-58240951D02*
X155969819Y-58145713D01*
X155969819Y-58145713D02*
X155969819Y-57907618D01*
X155969819Y-57907618D02*
X156017438Y-57812380D01*
X156017438Y-57812380D02*
X156065057Y-57764761D01*
X156065057Y-57764761D02*
X156160295Y-57717142D01*
X156160295Y-57717142D02*
X156255533Y-57717142D01*
X156255533Y-57717142D02*
X156398390Y-57764761D01*
X156398390Y-57764761D02*
X156969819Y-58336189D01*
X156969819Y-58336189D02*
X156969819Y-57717142D01*
X155969819Y-57098094D02*
X155969819Y-57002856D01*
X155969819Y-57002856D02*
X156017438Y-56907618D01*
X156017438Y-56907618D02*
X156065057Y-56859999D01*
X156065057Y-56859999D02*
X156160295Y-56812380D01*
X156160295Y-56812380D02*
X156350771Y-56764761D01*
X156350771Y-56764761D02*
X156588866Y-56764761D01*
X156588866Y-56764761D02*
X156779342Y-56812380D01*
X156779342Y-56812380D02*
X156874580Y-56859999D01*
X156874580Y-56859999D02*
X156922200Y-56907618D01*
X156922200Y-56907618D02*
X156969819Y-57002856D01*
X156969819Y-57002856D02*
X156969819Y-57098094D01*
X156969819Y-57098094D02*
X156922200Y-57193332D01*
X156922200Y-57193332D02*
X156874580Y-57240951D01*
X156874580Y-57240951D02*
X156779342Y-57288570D01*
X156779342Y-57288570D02*
X156588866Y-57336189D01*
X156588866Y-57336189D02*
X156350771Y-57336189D01*
X156350771Y-57336189D02*
X156160295Y-57288570D01*
X156160295Y-57288570D02*
X156065057Y-57240951D01*
X156065057Y-57240951D02*
X156017438Y-57193332D01*
X156017438Y-57193332D02*
X155969819Y-57098094D01*
X158293237Y-86484819D02*
X157959904Y-86008628D01*
X157721809Y-86484819D02*
X157721809Y-85484819D01*
X157721809Y-85484819D02*
X158102761Y-85484819D01*
X158102761Y-85484819D02*
X158197999Y-85532438D01*
X158197999Y-85532438D02*
X158245618Y-85580057D01*
X158245618Y-85580057D02*
X158293237Y-85675295D01*
X158293237Y-85675295D02*
X158293237Y-85818152D01*
X158293237Y-85818152D02*
X158245618Y-85913390D01*
X158245618Y-85913390D02*
X158197999Y-85961009D01*
X158197999Y-85961009D02*
X158102761Y-86008628D01*
X158102761Y-86008628D02*
X157721809Y-86008628D01*
X159150380Y-85818152D02*
X159150380Y-86484819D01*
X158912285Y-85437200D02*
X158674190Y-86151485D01*
X158674190Y-86151485D02*
X159293237Y-86151485D01*
X160959904Y-86484819D02*
X160388476Y-86484819D01*
X160674190Y-86484819D02*
X160674190Y-85484819D01*
X160674190Y-85484819D02*
X160578952Y-85627676D01*
X160578952Y-85627676D02*
X160483714Y-85722914D01*
X160483714Y-85722914D02*
X160388476Y-85770533D01*
X161578952Y-85484819D02*
X161674190Y-85484819D01*
X161674190Y-85484819D02*
X161769428Y-85532438D01*
X161769428Y-85532438D02*
X161817047Y-85580057D01*
X161817047Y-85580057D02*
X161864666Y-85675295D01*
X161864666Y-85675295D02*
X161912285Y-85865771D01*
X161912285Y-85865771D02*
X161912285Y-86103866D01*
X161912285Y-86103866D02*
X161864666Y-86294342D01*
X161864666Y-86294342D02*
X161817047Y-86389580D01*
X161817047Y-86389580D02*
X161769428Y-86437200D01*
X161769428Y-86437200D02*
X161674190Y-86484819D01*
X161674190Y-86484819D02*
X161578952Y-86484819D01*
X161578952Y-86484819D02*
X161483714Y-86437200D01*
X161483714Y-86437200D02*
X161436095Y-86389580D01*
X161436095Y-86389580D02*
X161388476Y-86294342D01*
X161388476Y-86294342D02*
X161340857Y-86103866D01*
X161340857Y-86103866D02*
X161340857Y-85865771D01*
X161340857Y-85865771D02*
X161388476Y-85675295D01*
X161388476Y-85675295D02*
X161436095Y-85580057D01*
X161436095Y-85580057D02*
X161483714Y-85532438D01*
X161483714Y-85532438D02*
X161578952Y-85484819D01*
X162340857Y-86484819D02*
X162340857Y-85484819D01*
X162436095Y-86103866D02*
X162721809Y-86484819D01*
X162721809Y-85818152D02*
X162340857Y-86199104D01*
D11*
%TO.C,SW1*%
X156750000Y-77696000D02*
X156750000Y-79196000D01*
X158000000Y-81696000D02*
X162500000Y-81696000D01*
X162500000Y-75196000D02*
X158000000Y-75196000D01*
X163750000Y-79196000D02*
X163750000Y-77696000D01*
%TO.C,Red1*%
X177906000Y-49898000D02*
X177906000Y-49742000D01*
X177906000Y-52214000D02*
X177906000Y-52058000D01*
X174674563Y-49898000D02*
G75*
G02*
X177906000Y-49742484I1671437J-1080000D01*
G01*
X175305039Y-49898000D02*
G75*
G02*
X177386961Y-49898000I1040961J-1080000D01*
G01*
X177386961Y-52058000D02*
G75*
G02*
X175305039Y-52058000I-1040961J1080000D01*
G01*
X177906000Y-52213516D02*
G75*
G02*
X174674563Y-52058000I-1560000J1235516D01*
G01*
%TO.C,J5*%
X173854000Y-93844000D02*
X173854000Y-99044000D01*
X173854000Y-93844000D02*
X176454000Y-93844000D01*
X173854000Y-99044000D02*
X179054000Y-99044000D01*
X176454000Y-93844000D02*
X176454000Y-96444000D01*
X176454000Y-96444000D02*
X179054000Y-96444000D01*
X177724000Y-93844000D02*
X179054000Y-93844000D01*
X179054000Y-93844000D02*
X179054000Y-95174000D01*
X179054000Y-96444000D02*
X179054000Y-99044000D01*
%TO.C,R2*%
X158955000Y-56090000D02*
X158955000Y-62630000D01*
X158955000Y-62630000D02*
X159285000Y-62630000D01*
X159285000Y-56090000D02*
X158955000Y-56090000D01*
X161365000Y-56090000D02*
X161695000Y-56090000D01*
X161695000Y-56090000D02*
X161695000Y-62630000D01*
X161695000Y-62630000D02*
X161365000Y-62630000D01*
%TO.C,R1*%
X162765000Y-56090000D02*
X162765000Y-62630000D01*
X162765000Y-62630000D02*
X163095000Y-62630000D01*
X163095000Y-56090000D02*
X162765000Y-56090000D01*
X165175000Y-56090000D02*
X165505000Y-56090000D01*
X165505000Y-56090000D02*
X165505000Y-62630000D01*
X165505000Y-62630000D02*
X165175000Y-62630000D01*
%TO.C,J6*%
X159650000Y-66900000D02*
X160980000Y-66900000D01*
X159650000Y-68230000D02*
X159650000Y-66900000D01*
X159650000Y-69500000D02*
X162250000Y-69500000D01*
X159650000Y-72100000D02*
X159650000Y-69500000D01*
X159650000Y-72100000D02*
X164850000Y-72100000D01*
X162250000Y-66900000D02*
X164850000Y-66900000D01*
X162250000Y-69500000D02*
X162250000Y-66900000D01*
X164850000Y-72100000D02*
X164850000Y-66900000D01*
%TO.C,R3*%
X155145000Y-56090000D02*
X155475000Y-56090000D01*
X155145000Y-62630000D02*
X155145000Y-56090000D01*
X155475000Y-62630000D02*
X155145000Y-62630000D01*
X157555000Y-62630000D02*
X157885000Y-62630000D01*
X157885000Y-56090000D02*
X157555000Y-56090000D01*
X157885000Y-62630000D02*
X157885000Y-56090000D01*
%TO.C,Green1*%
X178014000Y-61836000D02*
X178014000Y-61680000D01*
X178014000Y-64152000D02*
X178014000Y-63996000D01*
X174782563Y-61836000D02*
G75*
G02*
X178014000Y-61680484I1671437J-1080000D01*
G01*
X175413039Y-61836000D02*
G75*
G02*
X177494961Y-61836000I1040961J-1080000D01*
G01*
X177494961Y-63996000D02*
G75*
G02*
X175413039Y-63996000I-1040961J1080000D01*
G01*
X178014000Y-64151516D02*
G75*
G02*
X174782563Y-63996000I-1560000J1235516D01*
G01*
%TO.C,Yellow1*%
X178014000Y-55880000D02*
X178014000Y-55724000D01*
X178014000Y-58196000D02*
X178014000Y-58040000D01*
X174782563Y-55880000D02*
G75*
G02*
X178014000Y-55724484I1671437J-1080000D01*
G01*
X175413039Y-55880000D02*
G75*
G02*
X177494961Y-55880000I1040961J-1080000D01*
G01*
X177494961Y-58040000D02*
G75*
G02*
X175413039Y-58040000I-1040961J1080000D01*
G01*
X178014000Y-58195516D02*
G75*
G02*
X174782563Y-58040000I-1560000J1235516D01*
G01*
%TO.C,R4 10k*%
X156928000Y-84660000D02*
X163468000Y-84660000D01*
X156928000Y-84990000D02*
X156928000Y-84660000D01*
X156928000Y-87070000D02*
X156928000Y-87400000D01*
X156928000Y-87400000D02*
X163468000Y-87400000D01*
X163468000Y-84660000D02*
X163468000Y-84990000D01*
X163468000Y-87400000D02*
X163468000Y-87070000D01*
%TD*%
M02*
