%TF.GenerationSoftware,KiCad,Pcbnew,9.0.7*%
%TF.CreationDate,2026-05-12T17:19:37+02:00*%
%TF.ProjectId,ampel_kicad,616d7065-6c5f-46b6-9963-61642e6b6963,rev?*%
%TF.SameCoordinates,Original*%
%TF.FileFunction,Soldermask,Bot*%
%TF.FilePolarity,Negative*%
%FSLAX46Y46*%
G04 Gerber Fmt 4.6, Leading zero omitted, Abs format (unit mm)*
G04 Created by KiCad (PCBNEW 9.0.7) date 2026-05-12 17:19:37*
%MOMM*%
%LPD*%
G01*
G04 APERTURE LIST*
%ADD10C,2.000000*%
%ADD11R,1.800000X1.800000*%
%ADD12C,1.800000*%
%ADD13R,1.700000X1.700000*%
%ADD14C,1.700000*%
%ADD15C,1.600000*%
%ADD16C,0.600000*%
%ADD17O,1.700000X1.700000*%
G04 APERTURE END LIST*
D10*
%TO.C,SW1*%
X157000000Y-76196000D03*
X163500000Y-76196000D03*
X157000000Y-80696000D03*
X163500000Y-80696000D03*
%TD*%
D11*
%TO.C,Red1*%
X177616000Y-50978000D03*
D12*
X175076000Y-50978000D03*
%TD*%
D13*
%TO.C,J5*%
X177724000Y-95174000D03*
D14*
X175184000Y-95174000D03*
X177724000Y-97714000D03*
X175184000Y-97714000D03*
%TD*%
D15*
%TO.C,R2*%
X160325000Y-55550000D03*
X160325000Y-63170000D03*
%TD*%
%TO.C,R1*%
X164135000Y-55550000D03*
X164135000Y-63170000D03*
%TD*%
D13*
%TO.C,J6*%
X160980000Y-68230000D03*
D14*
X160980000Y-70770000D03*
X163520000Y-68230000D03*
X163520000Y-70770000D03*
%TD*%
D15*
%TO.C,R3*%
X156515000Y-63170000D03*
X156515000Y-55550000D03*
%TD*%
D11*
%TO.C,Green1*%
X177724000Y-62916000D03*
D12*
X175184000Y-62916000D03*
%TD*%
D11*
%TO.C,Yellow1*%
X177724000Y-56960000D03*
D12*
X175184000Y-56960000D03*
%TD*%
D16*
%TO.C,REF\u002A\u002A*%
X167056000Y-53724000D03*
X167056000Y-52724000D03*
X167056000Y-51724000D03*
X167056000Y-50724000D03*
X167056000Y-49724000D03*
%TD*%
%TO.C,REF\u002A\u002A*%
X172947000Y-96363000D03*
X172947000Y-95363000D03*
X172947000Y-94363000D03*
X172947000Y-93363000D03*
X172947000Y-92363000D03*
%TD*%
D15*
%TO.C,R4 10k*%
X156388000Y-86030000D03*
X164008000Y-86030000D03*
%TD*%
D16*
%TO.C,REF\u002A\u002A*%
X167056000Y-96412000D03*
X167056000Y-95412000D03*
X167056000Y-94412000D03*
X167056000Y-93412000D03*
X167056000Y-92412000D03*
%TD*%
%TO.C,REF\u002A\u002A*%
X170915000Y-53724000D03*
X170915000Y-52724000D03*
X170915000Y-51724000D03*
X170915000Y-50724000D03*
X170915000Y-49724000D03*
%TD*%
D13*
%TO.C,J1*%
X116002000Y-97460000D03*
D17*
X118542000Y-97460000D03*
X121082000Y-97460000D03*
X123622000Y-97460000D03*
X126162000Y-97460000D03*
X128702000Y-97460000D03*
X131242000Y-97460000D03*
X133782000Y-97460000D03*
%TD*%
D13*
%TO.C,J3*%
X138862000Y-97460000D03*
D17*
X141402000Y-97460000D03*
X143942000Y-97460000D03*
X146482000Y-97460000D03*
X149022000Y-97460000D03*
X151562000Y-97460000D03*
%TD*%
D13*
%TO.C,J2*%
X106858000Y-49200000D03*
D17*
X109398000Y-49200000D03*
X111938000Y-49200000D03*
X114478000Y-49200000D03*
X117018000Y-49200000D03*
X119558000Y-49200000D03*
X122098000Y-49200000D03*
X124638000Y-49200000D03*
X127178000Y-49200000D03*
X129718000Y-49200000D03*
%TD*%
D13*
%TO.C,J4*%
X133782000Y-49200000D03*
D17*
X136322000Y-49200000D03*
X138862000Y-49200000D03*
X141402000Y-49200000D03*
X143942000Y-49200000D03*
X146482000Y-49200000D03*
X149022000Y-49200000D03*
X151562000Y-49200000D03*
%TD*%
M02*
