M48
; DRILL file {KiCad 9.0.7} date 2026-03-09T09:26:19+0100
; FORMAT={-:-/ absolute / metric / decimal}
; #@! TF.CreationDate,2026-03-09T09:26:19+01:00
; #@! TF.GenerationSoftware,Kicad,Pcbnew,9.0.7
; #@! TF.FileFunction,Plated,1,2,PTH
FMAT,2
METRIC
; #@! TA.AperFunction,Plated,PTH,ComponentDrill
T1C0.800
; #@! TA.AperFunction,Plated,PTH,ComponentDrill
T2C0.900
; #@! TA.AperFunction,Plated,PTH,ComponentDrill
T3C1.000
; #@! TA.AperFunction,Plated,PTH,ComponentDrill
T4C1.100
%
G90
G05
T1
X103.81Y-62.655
X103.81Y-70.155
X103.81Y-77.14
X103.81Y-84.76
X156.515Y-55.55
X156.515Y-63.17
X156.515Y-86.03
X160.325Y-55.55
X160.325Y-63.17
X164.135Y-55.55
X164.135Y-63.17
X164.135Y-86.03
T2
X175.076Y-50.978
X175.184Y-56.96
X175.184Y-62.916
X177.616Y-50.978
X177.724Y-56.96
X177.724Y-62.916
T3
X106.858Y-49.2
X109.398Y-49.2
X111.938Y-49.2
X114.478Y-49.2
X116.002Y-97.46
X117.018Y-49.2
X118.542Y-97.46
X119.558Y-49.2
X121.082Y-97.46
X122.098Y-49.2
X123.622Y-97.46
X124.638Y-49.2
X126.162Y-97.46
X127.178Y-49.2
X128.702Y-97.46
X129.718Y-49.2
X131.242Y-97.46
X133.782Y-49.2
X133.782Y-97.46
X136.322Y-49.2
X138.862Y-49.2
X138.862Y-97.46
X141.402Y-49.2
X141.402Y-97.46
X143.942Y-49.2
X143.942Y-97.46
X146.482Y-49.2
X146.482Y-97.46
X149.022Y-49.2
X149.022Y-97.46
X151.562Y-49.2
X151.562Y-97.46
X160.198Y-68.23
X160.198Y-70.77
X162.738Y-68.23
X162.738Y-70.77
X175.184Y-95.174
X175.184Y-97.714
X177.724Y-95.174
X177.724Y-97.714
T4
X157.075Y-76.16
X157.075Y-80.66
X163.575Y-76.16
X163.575Y-80.66
M30
